<svg id="Vector_Smart_Object" data-name="Vector Smart Object" xmlns="http://www.w3.org/2000/svg" xmlns:xlink="http://www.w3.org/1999/xlink" width="25" height="17" viewBox="0 0 25 17">
  <defs>
    <clipPath id="clip-path">
      <rect id="Rectangle_18" data-name="Rectangle 18" width="25" height="17" transform="translate(0 0)" />
    </clipPath>
  </defs>
  <g id="Group_33" data-name="Group 33">
    <g id="Group_32" data-name="Group 32" clip-path="url(#clip-path)">
      <path id="Path_104" data-name="Path 104" d="M11.124,6.132a11.155,11.155,0,0,1-8.64,10.517c-.387.088-.771.191-1.153.3-.148.041-.321.111-.406-.038-.108-.187.044-.333.188-.438.4-.293.829-.554,1.213-.87a11.152,11.152,0,0,0,2.823-3.475c.377-.72.31-.857-.5-.956C1.613,10.8-.028,7.869,0,5.471A5.944,5.944,0,0,1,4.88.045a5.716,5.716,0,0,1,5.939,3.8,8.038,8.038,0,0,1,.3,2.286" />
      <path id="Path_105" data-name="Path 105" d="M14.81,16.989c-.052-.418.232-.548.475-.71a12.351,12.351,0,0,0,3.757-4.121c.382-.647.276-.872-.474-.975a5.6,5.6,0,0,1-4.458-7.034A5.782,5.782,0,0,1,19.725.017,5.434,5.434,0,0,1,24.9,4.7c.517,3.843-.987,6.929-3.708,9.491a11.8,11.8,0,0,1-6.38,2.8" />
    </g>
  </g>
</svg>
