<svg version="1.1" id="Layer_1" xmlns="http://www.w3.org/2000/svg" xmlns:xlink="http://www.w3.org/1999/xlink" x="0px" y="0px" style="enable-background:new 0 0 50 50;" xml:space="preserve" viewBox="10.65 10.68 28.72 28.67">
<style type="text/css">
	.st0{fill:#0033A1;}
	.st1{fill:#DCE3EB;}
	.st2{fill:#194F90;}
	.st3{fill:#FFFFFF;}
</style>
<g>
	<g>
		<g>
			<circle class="st2" cx="36.87" cy="24.85" r="2.47"/>
			<g>
				<path class="st2" d="M38.98,34.46l-5.11-2.61c-1.48-0.76-3.18-0.12-3.79,1.43l-2.14,5.45v0c-0.11,0.35-0.43,0.59-0.79,0.59      h-1.77l3.22-16.29c0.13-0.66,0.98-0.87,1.4-0.34l8.97,11.23C39.11,34.09,39.09,34.3,38.98,34.46z"/>
				<g>
					<path class="st2" d="M10.75,34.46l5.11-2.61c1.48-0.76,3.18-0.12,3.79,1.43l2.14,5.45v0c0.15,0.35,0.5,0.59,0.88,0.59h1.68       l-3.22-16.29c-0.13-0.66-0.98-0.87-1.4-0.34l-8.97,11.23C10.62,34.09,10.64,34.3,10.75,34.46z"/>
					<circle class="st2" cx="13.13" cy="24.85" r="2.47"/>
				</g>
			</g>
			<circle class="st2" cx="24.97" cy="13.25" r="2.56"/>
			<g>
				<g>
					<path class="st2" d="M32.38,14.27c-0.01,0.01-0.02,0.01-0.03,0.02c-1.55,0.86-3.04,1.76-4.55,2.59       c-2.31,1.45-2.95,3.64-2.95,3.64c-0.39-1.6-1.46-2.84-2.88-3.64c-0.56-0.31-1.05-0.59-1.61-0.9c-0.99-0.55-2.05-1.1-3.07-1.66       l0.04-0.09c1.03,0.55,2.1,1.09,3.1,1.63c0.55,0.29,1.04,0.56,1.58,0.86c1.4,0.76,2.45,1.93,2.83,3.45c0,0,0.64-2.07,2.9-3.45       c1.51-0.8,3-1.67,4.55-2.5c0.01-0.01,0.02-0.01,0.04-0.02L32.38,14.27z"/>
				</g>
				<g>
					<path class="st2" d="M32.2,13.9c-1.51,0.78-2.97,1.59-4.45,2.35c-2.27,1.33-2.91,3.32-2.91,3.32       c-0.38-1.46-1.43-2.59-2.84-3.32c-0.55-0.28-1.04-0.54-1.58-0.82c-0.97-0.5-1.94-1-2.94-1.51l0.03-0.06       c1.01,0.5,1.99,0.99,2.98,1.48c0.54,0.27,1.02,0.51,1.56,0.78c1.38,0.69,2.41,1.76,2.79,3.15c0,0,0.63-1.89,2.86-3.15       c1.48-0.73,2.95-1.52,4.47-2.27L32.2,13.9z"/>
				</g>
			</g>
			<path class="st2" d="M33.71,16.99c-0.42,0.24-0.83,0.46-1.23,0.69c-1.1,0.61-2.19,1.23-3.31,1.81c-0.88,0.45-1.45,1.09-1.67,2     c0,0.01,0,0.01,0,0.02c-0.04,0.15-0.06,0.29-0.08,0.45l-0.03,0.19l-2.22,12.67h-0.54c-0.61-3.3-2.03-11.08-2.35-12.89     c0-0.01,0-0.01,0-0.01c-0.01-0.02-0.01-0.04-0.02-0.06c-0.06-0.2-0.11-0.38-0.16-0.57c-0.05-0.15-0.1-0.29-0.16-0.43     c-0.23-0.51-0.64-0.92-1.13-1.2c-1.54-0.84-3.08-1.69-4.62-2.54c-0.1-0.06-0.2-0.12-0.33-0.19c0.41-0.74,0.81-1.47,1.22-2.21     c0.03-0.06,0.11-0.08,0.17-0.05c1.03,0.57,2.05,1.12,3.06,1.68c0.56,0.31,1.07,0.59,1.63,0.9c1.45,0.8,2.53,2.04,2.92,3.65     c0,0,0.66-2.19,3-3.65c1.52-0.83,3.03-1.72,4.59-2.59c0.06-0.03,0.14-0.01,0.17,0.05c0.39,0.7,0.77,1.39,1.16,2.1     C33.79,16.89,33.77,16.96,33.71,16.99z"/>
		</g>
	</g>
</g>
</svg>