<svg version="1.1" id="Layer_1" xmlns="http://www.w3.org/2000/svg" xmlns:xlink="http://www.w3.org/1999/xlink" x="0px" y="0px" style="enable-background:new 0 0 1497 588;" xml:space="preserve" viewBox="314 142.8 869 302.38">
<style type="text/css">
	.st0{fill:#0033A1;}
	.st1{fill:#DCE3EB;}
	.st2{fill:#194F90;}
	.st3{fill:#FFFFFF;}
</style>
<g>
	<g>
		<g>
			<circle class="st2" cx="576.31" cy="284.45" r="24.68"/>
			<g>
				<path class="st2" d="M597.37,380.59l-51.08-26.15c-14.83-7.6-31.78-1.19-37.88,14.31l-21.43,54.57l0,0      c-1.05,3.48-4.25,5.85-7.89,5.85h-17.73l32.22-162.99c1.32-6.62,9.8-8.71,14-3.42l89.7,112.35      C598.71,376.9,598.5,379.08,597.37,380.59z"/>
				<g>
					<path class="st2" d="M314.94,380.59l51.08-26.15c14.83-7.6,31.78-1.19,37.88,14.31l21.43,54.57l0,0       c1.49,3.55,4.97,5.85,8.82,5.85h16.8l-32.22-162.99c-1.32-6.62-9.8-8.71-14-3.42l-89.7,112.35       C313.6,376.9,313.82,379.08,314.94,380.59z"/>
					<circle class="st2" cx="338.71" cy="284.45" r="24.68"/>
				</g>
			</g>
			<circle class="st2" cx="457.16" cy="168.48" r="25.65"/>
			<g>
				<g>
					<path class="st2" d="M531.31,178.68c-0.08,0.08-0.17,0.13-0.29,0.19c-15.46,8.63-30.4,17.62-45.52,25.93       c-23.07,14.54-29.54,36.39-29.54,36.39c-3.92-16.05-14.58-28.41-28.85-36.39c-5.57-3.12-10.52-5.95-16.11-9.05       c-9.89-5.49-20.55-11-30.73-16.65l0.44-0.86c10.27,5.51,21.03,10.89,31.05,16.26c5.47,2.93,10.37,5.61,15.84,8.57       c14.02,7.6,24.51,19.31,28.36,34.55c0,0,6.37-20.72,29.04-34.55c15.12-8.02,30.06-16.7,45.56-25.03       c0.13-0.08,0.25-0.13,0.36-0.15L531.31,178.68z"/>
				</g>
				<g>
					<path class="st2" d="M529.55,174.97c-15.13,7.81-29.73,15.96-44.5,23.48c-22.71,13.26-29.1,33.18-29.1,33.18       c-3.85-14.64-14.33-25.91-28.37-33.18c-5.47-2.85-10.37-5.41-15.84-8.25c-9.7-4.99-19.42-9.99-29.37-15.11l0.33-0.61       c10.08,4.99,19.94,9.91,29.79,14.79c5.38,2.68,10.2,5.11,15.57,7.81c13.81,6.93,24.13,17.6,27.9,31.51       c0,0,6.28-18.9,28.6-31.51c14.85-7.29,29.48-15.19,44.69-22.75L529.55,174.97z"/>
				</g>
			</g>
			<path class="st2" d="M544.65,205.91c-4.21,2.35-8.26,4.61-12.3,6.86c-11.04,6.07-21.95,12.34-33.13,18.11     c-8.75,4.54-14.46,10.94-16.68,19.96c0,0.07-0.03,0.1-0.03,0.17c-0.36,1.46-0.63,2.95-0.8,4.54l-0.33,1.92l-22.22,126.74h-5.37     c-6.1-33.06-20.26-110.86-23.55-128.93c-0.03-0.07-0.03-0.1-0.03-0.13c-0.07-0.2-0.13-0.43-0.17-0.63     c-0.56-1.96-1.06-3.81-1.62-5.67c-0.5-1.46-0.99-2.89-1.59-4.28c-2.25-5.14-6.4-9.25-11.34-11.97     c-15.42-8.42-30.84-16.91-46.23-25.4c-0.99-0.56-1.96-1.16-3.28-1.92c4.08-7.4,8.09-14.69,12.17-22.12     c0.33-0.6,1.09-0.83,1.69-0.5c10.35,5.7,20.46,11.24,30.58,16.81c5.64,3.12,10.68,5.94,16.32,9.05     c14.46,8.03,25.27,20.43,29.22,36.54c0,0,6.6-21.92,29.98-36.54c15.25-8.29,30.28-17.24,45.9-25.87c0.6-0.33,1.36-0.1,1.69,0.5     c3.88,7,7.66,13.89,11.64,21.06C545.48,204.82,545.24,205.58,544.65,205.91z"/>
		</g>
	</g>
	<g>
		<g>
			<g>
				<path class="st2" d="M647.48,207.28h26.38c7.8,0,14.12,6.32,14.12,14.12v166.43c0,1.34-1.09,2.43-2.43,2.43h-26.38      c-7.8,0-14.12-6.32-14.12-14.12V209.71C645.06,208.37,646.14,207.28,647.48,207.28z"/>
				<path class="st2" d="M696.38,298.96c0-52.02,38.64-91.67,91.67-91.67c42.25,0,74.71,25.81,85.28,62.55      c0.45,1.55-0.77,3.11-2.38,3.11l-34.94,0c-4.58,0-8.73-2.41-11.28-6.22c-7.8-11.67-20.67-18.53-36.69-18.53      c-29.3,0-48.24,21.21-48.24,50.76s18.94,50.76,48.24,50.76c16.02,0,28.89-6.87,36.69-18.53c2.54-3.81,6.7-6.22,11.28-6.22      l34.94,0c1.61,0,2.82,1.56,2.38,3.11c-10.57,36.74-43.03,62.55-85.28,62.55C735.02,390.63,696.38,350.98,696.38,298.96z"/>
				<path class="st2" d="M1005.42,248.2h-43.38c-1.34,0-2.43,1.09-2.43,2.43v137.2c0,1.34-1.09,2.43-2.43,2.43H930.8      c-7.8,0-14.12-6.32-14.12-14.12V250.62c0-1.34-1.09-2.43-2.43-2.43h-31.44c-7.8,0-14.12-6.32-14.12-14.12v-24.37      c0-1.34,1.09-2.43,2.43-2.43h122.61c7.8,0,14.12,6.32,14.12,14.12v24.37C1007.85,247.11,1006.76,248.2,1005.42,248.2z"/>
				<path class="st2" d="M1004.9,298.96c0-52.02,38.63-91.67,91.67-91.67c42.25,0,74.71,25.81,85.28,62.55      c0.45,1.55-0.77,3.11-2.38,3.11l-34.94,0c-4.58,0-8.73-2.41-11.28-6.22c-7.8-11.67-20.66-18.53-36.69-18.53      c-29.29,0-48.23,21.21-48.23,50.76s18.94,50.76,48.23,50.76c16.02,0,28.89-6.87,36.69-18.53c2.54-3.81,6.7-6.22,11.28-6.22      l34.94,0c1.61,0,2.82,1.56,2.38,3.11c-10.57,36.74-43.03,62.55-85.28,62.55C1043.53,390.63,1004.9,350.98,1004.9,298.96z"/>
			</g>
		</g>
		<g>
			<path class="st2" d="M649.95,428.55c-1.58-0.71-2.83-1.74-3.78-3.06s-1.41-2.87-1.41-4.64c0-1.23,0.27-2.57,0.8-4.02h4.19     c-0.38,1.25-0.57,2.33-0.57,3.24c0,1.63,0.5,2.89,1.5,3.79c1,0.9,2.46,1.35,4.39,1.35h11.63v-9.88h4.49v14.28h-16.12     C653.24,429.62,651.52,429.26,649.95,428.55z M653.21,412.51c-0.5-0.5-0.74-1.09-0.74-1.78s0.25-1.29,0.74-1.78     s1.09-0.74,1.78-0.74c0.69,0,1.29,0.25,1.78,0.74c0.5,0.5,0.74,1.09,0.74,1.78s-0.25,1.29-0.74,1.78     c-0.5,0.5-1.09,0.74-1.78,0.74C654.3,413.25,653.7,413.01,653.21,412.51z M659.13,412.51c-0.5-0.5-0.74-1.09-0.74-1.78     s0.25-1.29,0.74-1.78c0.49-0.5,1.09-0.74,1.78-0.74c0.69,0,1.29,0.25,1.78,0.74c0.5,0.5,0.74,1.09,0.74,1.78     s-0.25,1.29-0.74,1.78c-0.5,0.5-1.09,0.74-1.78,0.74C660.22,413.25,659.62,413.01,659.13,412.51z"/>
			<path class="st2" d="M676.14,407.78h4.49v21.84h-4.49V407.78z"/>
			<path class="st2" d="M687,431.88c0.61,0,1.06-0.17,1.34-0.5c0.28-0.34,0.42-0.92,0.42-1.76v-14.28h4.49v14.28     c0,2.12-0.48,3.73-1.43,4.82c-0.95,1.09-2.31,1.64-4.08,1.64c-1.17,0-2.42-0.22-3.75-0.65l0.86-3.87     C685.77,431.77,686.48,431.88,687,431.88z"/>
			<path class="st2" d="M706.37,425.21v4.4h-8.18v-21.84h4.49v17.43H706.37z"/>
			<path class="st2" d="M704.66,425.84c0.44-0.42,1.02-0.63,1.71-0.63h5.95v4.4h-5.95c-0.69,0-1.27-0.21-1.71-0.63     c-0.45-0.42-0.67-0.94-0.67-1.58C703.99,426.78,704.21,426.25,704.66,425.84z"/>
			<path class="st2" d="M704.66,425.84c0.44-0.42,1.02-0.63,1.71-0.63h5.95v4.4h-5.95c-0.69,0-1.27-0.21-1.71-0.63     c-0.45-0.42-0.67-0.94-0.67-1.58C703.99,426.78,704.21,426.25,704.66,425.84z"/>
			<path class="st2" d="M743.26,425.21v4.4h-9.22c-1.33,0-2.43-0.2-3.3-0.61c-0.87-0.4-1.56-1.02-2.05-1.83     c-0.59,0.77-1.3,1.37-2.11,1.8c-0.81,0.43-1.7,0.64-2.65,0.64h-11.6c-0.69,0-1.27-0.21-1.71-0.63c-0.45-0.42-0.67-0.94-0.67-1.58     c0-0.63,0.22-1.16,0.67-1.58c0.44-0.42,1.02-0.63,1.71-0.63h3.72v-10.95h4.49v10.95h2.8c1.68,0,2.53-1.27,2.53-3.81v-7.14h4.49     v7.14c0,1.31,0.25,2.27,0.76,2.89c0.51,0.61,1.28,0.92,2.34,0.92h2.23v-11.93h4.49v11.93H743.26z M721.95,410.46     c-0.5-0.5-0.74-1.09-0.74-1.78c0-0.69,0.25-1.29,0.74-1.78c0.5-0.5,1.09-0.74,1.78-0.74s1.29,0.25,1.78,0.74     c0.5,0.5,0.74,1.09,0.74,1.78c0,0.69-0.25,1.29-0.74,1.78c-0.5,0.5-1.09,0.74-1.78,0.74S722.45,410.95,721.95,410.46z      M726.39,405.55c-0.5-0.5-0.74-1.09-0.74-1.79c0-0.69,0.25-1.29,0.74-1.78c0.49-0.49,1.09-0.74,1.78-0.74     c0.69,0,1.29,0.25,1.78,0.74c0.5,0.5,0.74,1.09,0.74,1.78c0,0.69-0.25,1.29-0.74,1.79c-0.5,0.5-1.09,0.74-1.78,0.74     C727.48,406.29,726.88,406.05,726.39,405.55z M730.85,410.46c-0.5-0.5-0.74-1.09-0.74-1.78c0-0.69,0.25-1.29,0.74-1.78     c0.5-0.5,1.09-0.74,1.78-0.74s1.29,0.25,1.78,0.74c0.5,0.5,0.74,1.09,0.74,1.78c0,0.69-0.25,1.29-0.74,1.78     c-0.5,0.5-1.09,0.74-1.78,0.74S731.35,410.95,730.85,410.46z"/>
			<path class="st2" d="M756.05,425.21v4.4c-3.15,0-5.29-0.87-6.4-2.62c-0.71,0.83-1.61,1.48-2.69,1.93     c-1.08,0.46-2.32,0.68-3.7,0.68c-0.67,0-1.24-0.22-1.7-0.65c-0.46-0.44-0.68-0.97-0.68-1.61c0-0.63,0.22-1.15,0.65-1.55     c0.44-0.4,1.01-0.59,1.72-0.59c1.09,0,1.98-0.32,2.68-0.95c0.69-0.63,1.04-1.59,1.04-2.86v-6.07h4.49v6.07     c0,1.13,0.32,2.03,0.95,2.71C753.15,424.85,754.36,425.21,756.05,425.21z M744.47,411.92c-0.5-0.5-0.74-1.09-0.74-1.78     c0-0.69,0.25-1.29,0.74-1.79c0.5-0.49,1.09-0.74,1.78-0.74s1.29,0.25,1.78,0.74c0.5,0.5,0.74,1.09,0.74,1.79     c0,0.69-0.25,1.29-0.74,1.78s-1.09,0.74-1.78,0.74S744.97,412.41,744.47,411.92z M750.39,411.92c-0.5-0.5-0.74-1.09-0.74-1.78     c0-0.69,0.25-1.29,0.74-1.79c0.5-0.49,1.09-0.74,1.78-0.74c0.69,0,1.29,0.25,1.79,0.74c0.49,0.5,0.74,1.09,0.74,1.79     c0,0.69-0.25,1.29-0.74,1.78c-0.5,0.5-1.09,0.74-1.79,0.74C751.48,412.66,750.89,412.41,750.39,411.92z"/>
			<path class="st2" d="M783.89,413.28v16.33h-6.13c-1.33,0-2.43-0.2-3.3-0.61c-0.87-0.4-1.56-1.02-2.05-1.83     c-0.59,0.77-1.3,1.37-2.11,1.8c-0.81,0.43-1.7,0.64-2.65,0.64h-11.6c-0.69,0-1.27-0.21-1.71-0.63c-0.45-0.42-0.67-0.94-0.67-1.58     c0-0.63,0.22-1.16,0.67-1.58c0.44-0.42,1.02-0.63,1.71-0.63h3.72v-10.95h4.49v10.95h2.8c1.68,0,2.53-1.27,2.53-3.81v-7.14h4.49     v7.14c0,1.31,0.25,2.27,0.76,2.89c0.5,0.61,1.28,0.92,2.34,0.92h2.23v-11.93H783.89z"/>
			<path class="st2" d="M808.4,407.78v21.84h-19.57v-4.4h6.48l-4.43-14.55h4.64l4.43,14.55h3.96v-17.43H808.4z"/>
			<path class="st2" d="M813.34,407.78h4.49v21.84h-4.49V407.78z"/>
			<path class="st2" d="M838.99,413.37v13.95c0,3.15-0.76,5.55-2.29,7.18c-1.53,1.64-3.76,2.46-6.69,2.46     c-1.27,0-2.62-0.13-4.05-0.39l0.03-4.34c1.29,0.18,2.41,0.27,3.36,0.27c1.8,0,3.12-0.41,3.96-1.23c0.83-0.82,1.25-2.15,1.25-3.97     v-0.09c-0.58,0.77-1.27,1.37-2.08,1.78c-0.81,0.42-1.73,0.63-2.74,0.63c-1.45,0-2.7-0.36-3.75-1.07     c-1.05-0.71-1.85-1.66-2.39-2.83c-0.55-1.17-0.82-2.42-0.82-3.75c0-1.51,0.36-2.91,1.07-4.21c0.71-1.3,1.84-2.36,3.38-3.17     c1.54-0.81,3.49-1.22,5.85-1.22H838.99z M832.71,424.65c0.56-0.38,1-0.89,1.34-1.53c0.34-0.64,0.51-1.33,0.51-2.07v-3.18h-1.55     c-2.02,0-3.49,0.35-4.39,1.06c-0.9,0.7-1.35,1.58-1.35,2.63c0,0.61,0.15,1.21,0.45,1.77c0.3,0.57,0.73,1.02,1.29,1.37     c0.57,0.35,1.22,0.52,1.98,0.52C831.58,425.21,832.15,425.02,832.71,424.65z"/>
			<path class="st2" d="M881.98,425.21v4.4c-1.61,0-2.93-0.22-3.97-0.65c-1.04-0.44-1.84-1.09-2.39-1.96     c-0.73,0.85-1.65,1.5-2.74,1.95c-1.09,0.45-2.32,0.67-3.69,0.67h-7.91c-1.84,0-3.55-0.36-5.13-1.07     c-1.58-0.71-2.83-1.74-3.78-3.06s-1.41-2.87-1.41-4.64c0-1.23,0.27-2.57,0.8-4.02h4.19c-0.38,1.25-0.57,2.33-0.57,3.24     c0,1.63,0.5,2.89,1.5,3.79c1,0.9,2.46,1.35,4.39,1.35h7.91c1.29,0,2.23-0.3,2.83-0.91c0.6-0.61,0.89-1.57,0.89-2.9v-6.07h4.49     v6.07c0,1.13,0.32,2.03,0.95,2.71C879.09,424.85,880.3,425.21,881.98,425.21z M862.2,436.58c-0.5-0.5-0.74-1.09-0.74-1.78     s0.25-1.29,0.74-1.78c0.5-0.5,1.09-0.74,1.78-0.74s1.29,0.25,1.78,0.74c0.5,0.5,0.74,1.09,0.74,1.78s-0.25,1.29-0.74,1.78     c-0.5,0.5-1.09,0.74-1.78,0.74S862.69,437.07,862.2,436.58z"/>
			<path class="st2" d="M880.27,425.84c0.44-0.42,1.02-0.63,1.71-0.63h5.95v4.4h-5.95c-0.69,0-1.27-0.21-1.71-0.63     c-0.45-0.42-0.67-0.94-0.67-1.58C879.6,426.78,879.83,426.25,880.27,425.84z"/>
			<path class="st2" d="M880.27,425.84c0.44-0.42,1.02-0.63,1.71-0.63h5.95v4.4h-5.95c-0.69,0-1.27-0.21-1.71-0.63     c-0.45-0.42-0.67-0.94-0.67-1.58C879.6,426.78,879.83,426.25,880.27,425.84z"/>
			<path class="st2" d="M891.65,415.34h4.49v14.28h-8.21c-0.67,0-1.24-0.22-1.7-0.65c-0.46-0.44-0.68-0.97-0.68-1.61     c0-0.63,0.22-1.15,0.65-1.55c0.44-0.4,1.01-0.59,1.72-0.59h3.72V415.34z M889.09,436.55c-0.5-0.5-0.74-1.09-0.74-1.78     s0.25-1.29,0.74-1.78s1.09-0.74,1.79-0.74c0.69,0,1.29,0.25,1.78,0.74c0.49,0.5,0.74,1.09,0.74,1.78s-0.25,1.29-0.74,1.78     c-0.5,0.5-1.09,0.74-1.78,0.74C890.18,437.29,889.59,437.04,889.09,436.55z M895.01,436.55c-0.5-0.5-0.74-1.09-0.74-1.78     s0.25-1.29,0.74-1.78c0.5-0.5,1.09-0.74,1.78-0.74s1.29,0.25,1.78,0.74c0.5,0.5,0.74,1.09,0.74,1.78s-0.25,1.29-0.74,1.78     c-0.5,0.5-1.09,0.74-1.78,0.74S895.51,437.04,895.01,436.55z"/>
			<path class="st2" d="M905.6,431.88c0.61,0,1.06-0.17,1.34-0.5c0.28-0.34,0.42-0.92,0.42-1.76v-14.28h4.49v14.28     c0,2.12-0.48,3.73-1.43,4.82c-0.95,1.09-2.31,1.64-4.08,1.64c-1.17,0-2.42-0.22-3.75-0.65l0.86-3.87     C904.37,431.77,905.09,431.88,905.6,431.88z"/>
			<path class="st2" d="M934.85,425.21v4.4h-18.06v-4.4h10.56v-1.7c0-1.45-0.23-2.58-0.68-3.41c-0.46-0.82-1.17-1.42-2.14-1.78     c-0.97-0.37-2.27-0.55-3.9-0.55h-2.17v-4.49h2.23c3.47,0,6.2,0.87,8.18,2.62c1.98,1.75,2.98,4.28,2.98,7.62v1.7H934.85z"/>
			<path class="st2" d="M947.64,425.21v4.4c-3.15,0-5.29-0.87-6.4-2.62c-0.71,0.83-1.61,1.48-2.69,1.93     c-1.08,0.46-2.32,0.68-3.7,0.68c-0.67,0-1.24-0.22-1.7-0.65c-0.46-0.44-0.68-0.97-0.68-1.61c0-0.63,0.22-1.15,0.65-1.55     c0.44-0.4,1.01-0.59,1.72-0.59c1.09,0,1.98-0.32,2.68-0.95c0.69-0.63,1.04-1.59,1.04-2.86v-6.07h4.49v6.07     c0,1.13,0.32,2.03,0.95,2.71C944.74,424.85,945.95,425.21,947.64,425.21z M936.06,411.92c-0.5-0.5-0.74-1.09-0.74-1.78     c0-0.69,0.25-1.29,0.74-1.79c0.5-0.49,1.09-0.74,1.78-0.74s1.29,0.25,1.78,0.74c0.5,0.5,0.74,1.09,0.74,1.79     c0,0.69-0.25,1.29-0.74,1.78c-0.5,0.5-1.09,0.74-1.78,0.74S936.56,412.41,936.06,411.92z M941.98,411.92     c-0.5-0.5-0.74-1.09-0.74-1.78c0-0.69,0.25-1.29,0.74-1.79c0.5-0.49,1.09-0.74,1.78-0.74c0.69,0,1.29,0.25,1.79,0.74     c0.49,0.5,0.74,1.09,0.74,1.79c0,0.69-0.25,1.29-0.74,1.78c-0.5,0.5-1.09,0.74-1.79,0.74     C943.08,412.66,942.48,412.41,941.98,411.92z"/>
			<path class="st2" d="M960.43,425.21v4.4c-3.15,0-5.29-0.87-6.4-2.62c-0.71,0.83-1.61,1.48-2.69,1.93     c-1.08,0.46-2.32,0.68-3.7,0.68c-0.69,0-1.27-0.21-1.71-0.63c-0.45-0.42-0.67-0.94-0.67-1.58c0-0.63,0.22-1.16,0.67-1.58     c0.44-0.42,1.02-0.63,1.71-0.63c1.09,0,1.98-0.32,2.68-0.95c0.69-0.63,1.04-1.59,1.04-2.86v-13.63h4.49v13.63     c0,1.13,0.32,2.03,0.95,2.71C957.53,424.85,958.74,425.21,960.43,425.21z"/>
			<path class="st2" d="M964.15,407.78h4.49v21.84h-8.21c-0.69,0-1.27-0.21-1.71-0.63c-0.45-0.42-0.67-0.94-0.67-1.58     c0-0.63,0.22-1.16,0.67-1.58c0.44-0.42,1.02-0.63,1.71-0.63h3.72V407.78z"/>
			<path class="st2" d="M1005.27,429.62h-0.45c0.08,0.4,0.12,0.85,0.12,1.37c0,2.54-0.89,4.41-2.66,5.61     c-1.78,1.2-4.53,1.8-8.26,1.8h-1.75c-2.22,0-4.21-0.35-5.98-1.04c-1.77-0.69-3.16-1.77-4.19-3.21c-1.03-1.45-1.55-3.27-1.55-5.47     c0-1.61,0.29-3.36,0.86-5.27h4.19c-0.44,1.69-0.65,3.14-0.65,4.34c0,2.06,0.6,3.62,1.78,4.69c1.19,1.06,3.04,1.59,5.53,1.59h1.75     c1.75,0,3.07-0.09,3.97-0.27c0.9-0.18,1.54-0.48,1.9-0.91c0.37-0.43,0.55-1.05,0.55-1.86c0-0.54-0.15-0.98-0.46-1.34     c-0.31-0.36-0.9-0.65-1.77-0.89l-1.46-0.33c-0.5-0.14-1.6-0.4-3.3-0.77l0.86-4.08c3.05,0.67,5.24,1.11,6.57,1.31     c1.33,0.2,2.79,0.31,4.37,0.33V429.62z M988.17,444.43c-0.5-0.5-0.74-1.09-0.74-1.78c0-0.69,0.25-1.29,0.74-1.78     c0.49-0.5,1.09-0.74,1.78-0.74c0.69,0,1.29,0.25,1.78,0.74c0.5,0.5,0.74,1.09,0.74,1.78c0,0.69-0.25,1.29-0.74,1.78     c-0.5,0.5-1.09,0.74-1.78,0.74C989.26,445.17,988.66,444.93,988.17,444.43z M994.09,444.43c-0.5-0.5-0.74-1.09-0.74-1.78     c0-0.69,0.25-1.29,0.74-1.78c0.5-0.5,1.09-0.74,1.78-0.74s1.29,0.25,1.78,0.74c0.5,0.5,0.74,1.09,0.74,1.78     c0,0.69-0.25,1.29-0.74,1.78c-0.5,0.5-1.09,0.74-1.78,0.74S994.58,444.93,994.09,444.43z"/>
			<path class="st2" d="M1003.56,425.84c0.44-0.42,1.02-0.63,1.71-0.63h5.95v4.4h-5.95c-0.69,0-1.27-0.21-1.71-0.63     c-0.45-0.42-0.67-0.94-0.67-1.58C1002.89,426.78,1003.11,426.25,1003.56,425.84z"/>
			<path class="st2" d="M1003.56,425.84c0.44-0.42,1.02-0.63,1.71-0.63h5.95v4.4h-5.95c-0.69,0-1.27-0.21-1.71-0.63     c-0.45-0.42-0.67-0.94-0.67-1.58C1002.89,426.78,1003.11,426.25,1003.56,425.84z"/>
			<path class="st2" d="M1014.94,407.78h4.49v21.84h-8.21c-0.69,0-1.27-0.21-1.71-0.63c-0.45-0.42-0.67-0.94-0.67-1.58     c0-0.63,0.22-1.16,0.67-1.58c0.44-0.42,1.02-0.63,1.71-0.63h3.72V407.78z"/>
			<path class="st2" d="M1040.58,413.37v13.95c0,3.15-0.76,5.55-2.29,7.18c-1.53,1.64-3.76,2.46-6.69,2.46     c-1.27,0-2.62-0.13-4.05-0.39l0.03-4.34c1.29,0.18,2.41,0.27,3.36,0.27c1.8,0,3.12-0.41,3.96-1.23c0.83-0.82,1.25-2.15,1.25-3.97     v-0.09c-0.58,0.77-1.27,1.37-2.08,1.78c-0.81,0.42-1.73,0.63-2.74,0.63c-1.45,0-2.7-0.36-3.75-1.07     c-1.05-0.71-1.85-1.66-2.39-2.83c-0.55-1.17-0.82-2.42-0.82-3.75c0-1.51,0.36-2.91,1.07-4.21c0.71-1.3,1.84-2.36,3.38-3.17     s3.49-1.22,5.85-1.22H1040.58z M1034.31,424.65c0.56-0.38,1-0.89,1.34-1.53c0.34-0.64,0.51-1.33,0.51-2.07v-3.18h-1.55     c-2.02,0-3.49,0.35-4.39,1.06c-0.9,0.7-1.35,1.58-1.35,2.63c0,0.61,0.15,1.21,0.45,1.77c0.3,0.57,0.73,1.02,1.29,1.37     c0.57,0.35,1.22,0.52,1.98,0.52C1033.18,425.21,1033.75,425.02,1034.31,424.65z"/>
			<path class="st2" d="M1063.58,425.21v4.4h-18.06v-4.4h10.56v-1.7c0-1.45-0.23-2.58-0.68-3.41c-0.46-0.82-1.17-1.42-2.14-1.78     c-0.97-0.37-2.27-0.55-3.9-0.55h-2.17v-4.49h2.23c3.47,0,6.2,0.87,8.18,2.62c1.98,1.75,2.98,4.28,2.98,7.62v1.7H1063.58z"/>
			<path class="st2" d="M1067.3,407.78h4.49v21.84h-8.21c-0.69,0-1.27-0.21-1.71-0.63c-0.45-0.42-0.67-0.94-0.67-1.58     c0-0.63,0.22-1.16,0.67-1.58c0.44-0.42,1.02-0.63,1.71-0.63h3.72V407.78z"/>
			<path class="st2" d="M1076.73,407.78h4.49v21.84h-4.49V407.78z"/>
			<path class="st2" d="M1103.87,425.21v4.4h-3.09c0,2.12-0.48,3.73-1.43,4.82c-0.95,1.09-2.31,1.64-4.08,1.64     c-1.17,0-2.42-0.22-3.75-0.65l0.86-3.87c0.91,0.22,1.63,0.33,2.14,0.33c0.61,0,1.06-0.17,1.34-0.5c0.28-0.34,0.42-0.92,0.42-1.76     v-14.28h4.49v9.88H1103.87z M1096.67,411.97c-0.5-0.5-0.74-1.09-0.74-1.78c0-0.69,0.25-1.29,0.74-1.78     c0.5-0.5,1.09-0.74,1.78-0.74s1.29,0.25,1.78,0.74s0.74,1.09,0.74,1.78c0,0.69-0.25,1.29-0.74,1.78c-0.5,0.5-1.09,0.74-1.78,0.74     S1097.16,412.47,1096.67,411.97z"/>
			<path class="st2" d="M1102.16,425.84c0.44-0.42,1.02-0.63,1.71-0.63h5.95v4.4h-5.95c-0.69,0-1.27-0.21-1.71-0.63     c-0.45-0.42-0.67-0.94-0.67-1.58C1101.49,426.78,1101.71,426.25,1102.16,425.84z"/>
			<path class="st2" d="M1102.16,425.84c0.44-0.42,1.02-0.63,1.71-0.63h5.95v4.4h-5.95c-0.69,0-1.27-0.21-1.71-0.63     c-0.45-0.42-0.67-0.94-0.67-1.58C1101.49,426.78,1101.71,426.25,1102.16,425.84z"/>
			<path class="st2" d="M1123.28,417.83c1.66,1.76,2.48,4.22,2.48,7.38v4.4h-15.95c-0.69,0-1.24-0.22-1.64-0.65     c-0.4-0.44-0.59-0.95-0.59-1.55c0-0.59,0.2-1.11,0.59-1.55c0.4-0.44,0.94-0.65,1.64-0.65h11.45c0-2.52-0.82-4.31-2.46-5.37     c-1.64-1.06-4-1.59-7.1-1.59l-0.89-5.59c2-1.51,4.14-2.7,6.41-3.59c2.27-0.88,5.03-1.58,8.29-2.1l0.65,4.4     c-1.8,0.22-3.58,0.61-5.34,1.16c-1.76,0.56-3.31,1.21-4.66,1.96C1119.26,414.96,1121.62,416.07,1123.28,417.83z"/>
			<path class="st2" d="M1141.89,425.21v4.4h-3.09c0,2.12-0.48,3.73-1.43,4.82c-0.95,1.09-2.31,1.64-4.08,1.64     c-1.17,0-2.42-0.22-3.75-0.65l0.86-3.87c0.91,0.22,1.63,0.33,2.14,0.33c0.61,0,1.06-0.17,1.34-0.5c0.28-0.34,0.42-0.92,0.42-1.76     v-14.28h4.49v9.88H1141.89z"/>
			<path class="st2" d="M1156.83,414.41c1.22,0.75,2.18,1.78,2.89,3.08c0.7,1.3,1.06,2.73,1.06,4.3c0,1.63-0.35,3.03-1.04,4.21     c-0.69,1.18-1.62,2.08-2.77,2.69c-1.15,0.61-2.41,0.92-3.78,0.92c-1.07,0-2.13-0.19-3.17-0.57c-1.04-0.38-2.01-0.94-2.9-1.7     c-0.59,0.73-1.34,1.29-2.25,1.68c-0.9,0.39-1.9,0.58-2.99,0.58c-0.67,0-1.24-0.22-1.7-0.65c-0.46-0.44-0.68-0.97-0.68-1.61     c0-0.63,0.22-1.15,0.65-1.55c0.44-0.4,1.01-0.59,1.72-0.59c0.63,0,1.12-0.11,1.46-0.34c0.34-0.23,0.58-0.54,0.73-0.94     c0.15-0.4,0.32-1.01,0.52-1.84c0.2-0.85,0.34-1.41,0.42-1.66c0.61-2.26,1.58-4.02,2.9-5.27c1.32-1.25,2.92-1.87,4.81-1.87     C1154.24,413.28,1155.62,413.66,1156.83,414.41z M1155.21,424.54c0.71-0.65,1.07-1.56,1.07-2.75c0-1.15-0.33-2.11-0.98-2.87     c-0.65-0.76-1.52-1.15-2.59-1.15c-0.81,0-1.47,0.27-1.98,0.82c-0.51,0.55-0.96,1.41-1.35,2.6c-0.2,0.58-0.35,1.18-0.45,1.81     c-0.04,0.14-0.07,0.3-0.1,0.49c-0.03,0.19-0.08,0.4-0.16,0.64c0.57,0.46,1.2,0.8,1.87,1.03c0.67,0.23,1.33,0.34,1.96,0.34     C1153.6,425.51,1154.5,425.19,1155.21,424.54z M1165.33,425.21v4.4c-2.66,0-4.57-0.59-5.73-1.78c-1.16-1.19-1.74-3-1.74-5.41     c0-0.44,0.01-0.77,0.03-1.01h2.86c0,1.13,0.32,2.03,0.95,2.71C1162.43,424.85,1163.64,425.21,1165.33,425.21z"/>
			<path class="st2" d="M1169.05,407.78h4.49v21.84h-8.21c-0.69,0-1.27-0.21-1.71-0.63c-0.45-0.42-0.67-0.94-0.67-1.58     c0-0.63,0.22-1.16,0.67-1.58c0.44-0.42,1.02-0.63,1.71-0.63h3.72V407.78z"/>
			<path class="st2" d="M1178.48,407.78h4.49v21.84h-4.49V407.78z"/>
		</g>
	</g>
</g>
</svg>