<svg version="1.1" id="Layer_1" xmlns="http://www.w3.org/2000/svg" xmlns:xlink="http://www.w3.org/1999/xlink" x="0px" y="0px" style="enable-background:new 0 0 138 39;" xml:space="preserve" viewBox="31.5 5.42 75.03 28.22">
<style type="text/css">
	.st0{fill:#0033A1;}
	.st1{fill:#DCE3EB;}
	.st2{fill:#194F90;}
	.st3{fill:#FFFFFF;}
</style>
<g>
	<g>
		<g>
			<circle class="st0" cx="57.31" cy="19.35" r="2.43"/>
			<g>
				<path class="st0" d="M59.38,28.81l-5.03-2.57c-1.46-0.75-3.13-0.12-3.73,1.41l-2.11,5.37v0c-0.1,0.34-0.42,0.58-0.78,0.58H46      l3.17-16.04c0.13-0.65,0.96-0.86,1.38-0.34l8.83,11.05C59.51,28.44,59.49,28.66,59.38,28.81z"/>
				<g>
					<path class="st0" d="M31.59,28.81l5.03-2.57c1.46-0.75,3.13-0.12,3.73,1.41l2.11,5.37v0c0.15,0.35,0.49,0.58,0.87,0.58h1.65       L41.8,17.55c-0.13-0.65-0.96-0.86-1.38-0.34L31.6,28.27C31.46,28.44,31.48,28.66,31.59,28.81z"/>
					<circle class="st0" cx="33.93" cy="19.35" r="2.43"/>
				</g>
			</g>
			<circle class="st0" cx="45.58" cy="7.94" r="2.52"/>
			<g>
				<g>
					<path class="st0" d="M52.88,8.94c-0.01,0.01-0.02,0.01-0.03,0.02c-1.52,0.85-2.99,1.73-4.48,2.55       c-2.27,1.43-2.91,3.58-2.91,3.58c-0.39-1.58-1.43-2.8-2.84-3.58c-0.55-0.31-1.04-0.59-1.59-0.89       c-0.97-0.54-2.02-1.08-3.02-1.64l0.04-0.08c1.01,0.54,2.07,1.07,3.06,1.6c0.54,0.29,1.02,0.55,1.56,0.84       c1.38,0.75,2.41,1.9,2.79,3.4c0,0,0.63-2.04,2.86-3.4c1.49-0.79,2.96-1.64,4.48-2.46c0.01-0.01,0.02-0.01,0.04-0.02L52.88,8.94       z"/>
				</g>
				<g>
					<path class="st0" d="M52.71,8.58c-1.49,0.77-2.93,1.57-4.38,2.31c-2.23,1.3-2.86,3.26-2.86,3.26       c-0.38-1.44-1.41-2.55-2.79-3.26c-0.54-0.28-1.02-0.53-1.56-0.81c-0.95-0.49-1.91-0.98-2.89-1.49l0.03-0.06       c0.99,0.49,1.96,0.98,2.93,1.46c0.53,0.26,1,0.5,1.53,0.77c1.36,0.68,2.37,1.73,2.74,3.1c0,0,0.62-1.86,2.81-3.1       c1.46-0.72,2.9-1.49,4.4-2.24L52.71,8.58z"/>
				</g>
			</g>
			<path class="st0" d="M54.19,11.62c-0.41,0.23-0.81,0.45-1.21,0.68c-1.09,0.6-2.16,1.21-3.26,1.78c-0.86,0.45-1.42,1.08-1.64,1.96     c0,0.01,0,0.01,0,0.02c-0.04,0.14-0.06,0.29-0.08,0.45l-0.03,0.19l-2.19,12.47h-0.53c-0.6-3.25-1.99-10.91-2.32-12.69     c0-0.01,0-0.01,0-0.01c-0.01-0.02-0.01-0.04-0.02-0.06c-0.06-0.19-0.1-0.38-0.16-0.56c-0.05-0.14-0.1-0.28-0.16-0.42     c-0.22-0.51-0.63-0.91-1.12-1.18c-1.52-0.83-3.03-1.66-4.55-2.5c-0.1-0.06-0.19-0.11-0.32-0.19c0.4-0.73,0.8-1.45,1.2-2.18     c0.03-0.06,0.11-0.08,0.17-0.05c1.02,0.56,2.01,1.11,3.01,1.65c0.55,0.31,1.05,0.58,1.61,0.89c1.42,0.79,2.49,2.01,2.87,3.6     c0,0,0.65-2.16,2.95-3.6c1.5-0.82,2.98-1.7,4.52-2.55c0.06-0.03,0.13-0.01,0.17,0.05c0.38,0.69,0.75,1.37,1.15,2.07     C54.27,11.51,54.25,11.59,54.19,11.62z"/>
		</g>
	</g>
	<g>
		<g>
			<path class="st0" d="M64.48,11.55h2.07c0.61,0,1.11,0.5,1.11,1.11v13.08c0,0.11-0.09,0.19-0.19,0.19H65.4     c-0.61,0-1.11-0.5-1.11-1.11V11.74C64.29,11.63,64.37,11.55,64.48,11.55z"/>
			<path class="st0" d="M68.32,18.75c0-4.09,3.04-7.21,7.21-7.21c3.32,0,5.87,2.03,6.71,4.92c0.04,0.12-0.06,0.24-0.19,0.24l-2.75,0     c-0.36,0-0.69-0.19-0.89-0.49c-0.61-0.92-1.62-1.46-2.88-1.46c-2.3,0-3.79,1.67-3.79,3.99s1.49,3.99,3.79,3.99     c1.26,0,2.27-0.54,2.88-1.46c0.2-0.3,0.53-0.49,0.89-0.49l2.75,0c0.13,0,0.22,0.12,0.19,0.24c-0.83,2.89-3.38,4.92-6.71,4.92     C71.36,25.96,68.32,22.84,68.32,18.75z"/>
			<path class="st0" d="M92.62,14.76h-3.41c-0.11,0-0.19,0.09-0.19,0.19v10.79c0,0.11-0.09,0.19-0.19,0.19h-2.07     c-0.61,0-1.11-0.5-1.11-1.11v-9.87c0-0.11-0.09-0.19-0.19-0.19h-2.47c-0.61,0-1.11-0.5-1.11-1.11v-1.92     c0-0.11,0.09-0.19,0.19-0.19h9.64c0.61,0,1.11,0.5,1.11,1.11v1.92C92.81,14.68,92.73,14.76,92.62,14.76z"/>
			<path class="st0" d="M92.58,18.75c0-4.09,3.04-7.21,7.21-7.21c3.32,0,5.87,2.03,6.71,4.92c0.04,0.12-0.06,0.24-0.19,0.24l-2.75,0     c-0.36,0-0.69-0.19-0.89-0.49c-0.61-0.92-1.62-1.46-2.88-1.46c-2.3,0-3.79,1.67-3.79,3.99s1.49,3.99,3.79,3.99     c1.26,0,2.27-0.54,2.88-1.46c0.2-0.3,0.53-0.49,0.89-0.49l2.75,0c0.13,0,0.22,0.12,0.19,0.24c-0.83,2.89-3.38,4.92-6.71,4.92     C95.62,25.96,92.58,22.84,92.58,18.75z"/>
		</g>
		<g>
			<g>
				<path class="st0" d="M64.41,28.8h0.27v1.87h-0.27V28.8z"/>
				<path class="st0" d="M66.79,28.8v1.87h-0.33l-0.85-1.45l0.03,0.66v0.78h-0.27V28.8h0.32l0.85,1.44l-0.02-0.66V28.8H66.79z"/>
				<path class="st0" d="M68.65,29.09h-0.52v1.58h-0.27v-1.58h-0.52V28.8h1.31V29.09z"/>
				<path class="st0" d="M69.49,29.09v0.48h0.78v0.29h-0.78v0.52h0.84v0.29h-1.11V28.8h1.11v0.29H69.49z"/>
				<path class="st0" d="M71.47,29.98h-0.26v0.7h-0.27V28.8h0.7c0.37,0,0.58,0.24,0.58,0.59c0,0.31-0.16,0.51-0.43,0.56l0.51,0.71      h-0.34L71.47,29.98z M71.21,29.71h0.4c0.23,0,0.33-0.13,0.33-0.31c0-0.18-0.11-0.31-0.33-0.31h-0.4V29.71z"/>
				<path class="st0" d="M74.27,28.8v1.87h-0.33l-0.85-1.45l0.03,0.66v0.78h-0.27V28.8h0.32l0.85,1.44L74,29.58V28.8H74.27z"/>
				<path class="st0" d="M76.03,30.17h-0.74l-0.17,0.5h-0.29l0.66-1.87h0.35l0.66,1.87H76.2L76.03,30.17z M75.93,29.88l-0.27-0.78      l-0.27,0.78H75.93z"/>
				<path class="st0" d="M78.02,29.09H77.5v1.58h-0.27v-1.58H76.7V28.8h1.31V29.09z"/>
				<path class="st0" d="M78.58,28.8h0.27v1.87h-0.27V28.8z"/>
				<path class="st0" d="M81.24,29.74c0,0.55-0.38,0.97-0.88,0.97s-0.88-0.42-0.88-0.97c0-0.55,0.38-0.97,0.88-0.97      S81.23,29.19,81.24,29.74z M79.75,29.74c0,0.39,0.26,0.68,0.61,0.68c0.34,0,0.6-0.29,0.6-0.68c0-0.39-0.26-0.68-0.6-0.68      C80.01,29.06,79.75,29.35,79.75,29.74z"/>
				<path class="st0" d="M83.26,28.8v1.87h-0.33l-0.85-1.45l0.03,0.66v0.78h-0.27V28.8h0.32l0.85,1.44l-0.02-0.66V28.8H83.26z"/>
				<path class="st0" d="M85.02,30.17h-0.74l-0.17,0.5h-0.29l0.66-1.87h0.35l0.66,1.87h-0.29L85.02,30.17z M84.92,29.88l-0.27-0.78      l-0.27,0.78H84.92z"/>
				<path class="st0" d="M87.1,30.38v0.29h-1.05V28.8h0.27v1.58H87.1z"/>
				<path class="st0" d="M88.62,29.74c0-0.55,0.37-0.97,0.88-0.97c0.39,0,0.71,0.26,0.81,0.65h-0.29c-0.09-0.22-0.28-0.36-0.52-0.36      c-0.35,0-0.6,0.29-0.6,0.68c0,0.39,0.25,0.68,0.6,0.68c0.24,0,0.43-0.14,0.52-0.36h0.29c-0.11,0.39-0.42,0.65-0.81,0.65      C88.99,30.7,88.62,30.29,88.62,29.74z"/>
				<path class="st0" d="M91.17,29.09v0.48h0.78v0.29h-0.78v0.52h0.84v0.29H90.9V28.8h1.11v0.29H91.17z"/>
				<path class="st0" d="M94.01,28.8v1.87h-0.33l-0.85-1.45l0.03,0.66v0.78h-0.27V28.8h0.32l0.85,1.44l-0.02-0.66V28.8H94.01z"/>
				<path class="st0" d="M95.88,29.09h-0.52v1.58h-0.27v-1.58h-0.52V28.8h1.31V29.09z"/>
				<path class="st0" d="M96.72,29.09v0.48h0.78v0.29h-0.78v0.52h0.84v0.29h-1.11V28.8h1.11v0.29H96.72z"/>
				<path class="st0" d="M98.7,29.98h-0.26v0.7h-0.27V28.8h0.7c0.37,0,0.58,0.24,0.58,0.59c0,0.31-0.16,0.51-0.43,0.56l0.51,0.71      h-0.34L98.7,29.98z M98.43,29.71h0.4c0.23,0,0.33-0.13,0.33-0.31c0-0.18-0.11-0.31-0.33-0.31h-0.4V29.71z"/>
				<path class="st0" d="M101.38,29.09v0.5h0.78v0.29h-0.78v0.8h-0.27V28.8h1.11v0.29H101.38z"/>
				<path class="st0" d="M104.5,29.74c0,0.55-0.38,0.97-0.88,0.97c-0.5,0-0.88-0.42-0.88-0.97c0-0.55,0.38-0.97,0.88-0.97      C104.11,28.77,104.5,29.19,104.5,29.74z M103.01,29.74c0,0.39,0.26,0.68,0.61,0.68c0.34,0,0.6-0.29,0.6-0.68      c0-0.39-0.26-0.68-0.6-0.68C103.27,29.06,103.01,29.35,103.01,29.74z"/>
				<path class="st0" d="M105.65,29.98h-0.26v0.7h-0.27V28.8h0.7c0.37,0,0.58,0.24,0.58,0.59c0,0.31-0.16,0.51-0.43,0.56l0.51,0.71      h-0.34L105.65,29.98z M105.39,29.71h0.4c0.23,0,0.33-0.13,0.33-0.31c0-0.18-0.11-0.31-0.33-0.31h-0.4V29.71z"/>
			</g>
			<g>
				<path class="st0" d="M65.56,32.03h-0.5v1.53h-0.27v-1.53h-0.5v-0.28h1.27V32.03z"/>
				<path class="st0" d="M66.62,32.88h-0.25v0.67H66.1v-1.81h0.68c0.36,0,0.56,0.23,0.56,0.57c0,0.3-0.15,0.49-0.41,0.54l0.49,0.69      h-0.33L66.62,32.88z M66.37,32.62h0.39c0.22,0,0.32-0.12,0.32-0.3s-0.1-0.3-0.32-0.3h-0.39V32.62z"/>
				<path class="st0" d="M69,33.07h-0.71l-0.17,0.49h-0.28l0.64-1.81h0.34l0.64,1.81h-0.28L69,33.07z M68.91,32.79l-0.26-0.76      l-0.26,0.76H68.91z"/>
				<path class="st0" d="M70,31.75h0.27v1.81H70V31.75z"/>
				<path class="st0" d="M72.29,31.75v1.81h-0.31l-0.82-1.4l0.03,0.64v0.76h-0.27v-1.81h0.31l0.82,1.39l-0.02-0.64v-0.76H72.29z"/>
				<path class="st0" d="M72.95,31.75h0.27v1.81h-0.27V31.75z"/>
				<path class="st0" d="M75.24,31.75v1.81h-0.31l-0.82-1.4l0.03,0.64v0.76h-0.27v-1.81h0.31L75,33.14l-0.02-0.64v-0.76H75.24z"/>
				<path class="st0" d="M77.48,32.6v0.96h-0.23v-0.36c-0.08,0.23-0.3,0.39-0.59,0.39c-0.46,0-0.82-0.39-0.82-0.93      s0.36-0.94,0.85-0.94c0.38,0,0.68,0.25,0.79,0.61h-0.28c-0.09-0.21-0.27-0.34-0.5-0.34c-0.34,0-0.58,0.28-0.58,0.66      c0,0.37,0.22,0.66,0.58,0.66c0.27,0,0.49-0.18,0.54-0.47h-0.62V32.6H77.48z"/>
				<path class="st0" d="M80.16,33.07h-0.71l-0.17,0.49H79l0.64-1.81h0.34l0.64,1.81h-0.28L80.16,33.07z M80.06,32.79l-0.26-0.76      l-0.26,0.76H80.06z"/>
				<path class="st0" d="M82.52,31.75v1.81H82.2l-0.82-1.4l0.03,0.64v0.76h-0.27v-1.81h0.31l0.82,1.39l-0.02-0.64v-0.76H82.52z"/>
				<path class="st0" d="M84.59,32.65c0,0.52-0.36,0.9-0.84,0.9h-0.58v-1.81h0.58C84.22,31.75,84.59,32.13,84.59,32.65z       M84.32,32.65c0-0.37-0.24-0.62-0.57-0.62h-0.31v1.25h0.31C84.08,33.28,84.32,33.02,84.32,32.65z"/>
				<path class="st0" d="M86.1,32.65c0-0.53,0.36-0.93,0.85-0.93c0.38,0,0.68,0.25,0.79,0.63h-0.28c-0.09-0.21-0.27-0.35-0.5-0.35      c-0.34,0-0.58,0.28-0.58,0.66c0,0.38,0.24,0.66,0.58,0.66c0.23,0,0.42-0.14,0.5-0.35h0.28c-0.1,0.37-0.41,0.63-0.79,0.63      C86.46,33.59,86.1,33.19,86.1,32.65z"/>
				<path class="st0" d="M89.94,32.65c0,0.53-0.37,0.93-0.85,0.93c-0.48,0-0.85-0.4-0.85-0.93c0-0.53,0.37-0.93,0.85-0.93      C89.57,31.72,89.94,32.12,89.94,32.65z M88.5,32.65c0,0.38,0.25,0.66,0.58,0.66c0.33,0,0.58-0.28,0.58-0.66      c0-0.38-0.25-0.66-0.58-0.66C88.76,32,88.5,32.28,88.5,32.65z"/>
				<path class="st0" d="M91.9,31.75v1.81h-0.31l-0.82-1.4l0.03,0.64v0.76h-0.27v-1.81h0.31l0.82,1.39l-0.02-0.64v-0.76H91.9z"/>
				<path class="st0" d="M93.77,33.04c0,0.4-0.32,0.55-0.61,0.55c-0.46,0-0.66-0.28-0.71-0.59h0.27c0.05,0.21,0.18,0.32,0.44,0.32      c0.22,0,0.35-0.1,0.35-0.26c0-0.17-0.13-0.2-0.44-0.27c-0.32-0.08-0.57-0.18-0.57-0.51c0-0.36,0.29-0.55,0.6-0.55      c0.41,0,0.6,0.23,0.65,0.52h-0.27c-0.05-0.15-0.16-0.25-0.38-0.25c-0.22,0-0.34,0.11-0.34,0.27c0,0.13,0.09,0.17,0.37,0.23      C93.55,32.59,93.77,32.69,93.77,33.04z"/>
				<path class="st0" d="M95.67,31.75v1.09c0,0.5-0.29,0.75-0.66,0.75c-0.38,0-0.66-0.25-0.66-0.75v-1.09h0.27v1.07      c0,0.35,0.17,0.49,0.39,0.49c0.23,0,0.39-0.14,0.39-0.49v-1.07H95.67z"/>
				<path class="st0" d="M97.34,33.28v0.28h-1.01v-1.81h0.27v1.53H97.34z"/>
				<path class="st0" d="M98.73,32.03h-0.5v1.53h-0.27v-1.53h-0.5v-0.28h1.27V32.03z"/>
				<path class="st0" d="M100.09,33.07h-0.71l-0.17,0.49h-0.28l0.64-1.81h0.34l0.64,1.81h-0.28L100.09,33.07z M99.99,32.79      l-0.26-0.76l-0.26,0.76H99.99z"/>
				<path class="st0" d="M102.45,31.75v1.81h-0.31l-0.82-1.4l0.03,0.64v0.76h-0.27v-1.81h0.31l0.82,1.39l-0.02-0.64v-0.76H102.45z"/>
				<path class="st0" d="M103.04,32.65c0-0.53,0.36-0.93,0.85-0.93c0.38,0,0.68,0.25,0.79,0.63h-0.28c-0.09-0.21-0.27-0.35-0.5-0.35      c-0.34,0-0.58,0.28-0.58,0.66c0,0.38,0.24,0.66,0.58,0.66c0.23,0,0.42-0.14,0.5-0.35h0.28c-0.1,0.37-0.41,0.63-0.79,0.63      C103.4,33.59,103.04,33.19,103.04,32.65z"/>
				<path class="st0" d="M105.91,32.93l0,0.62h-0.27v-0.62l-0.59-1.19h0.3l0.43,0.86l0.43-0.86h0.3L105.91,32.93z"/>
			</g>
		</g>
	</g>
</g>
</svg>