<svg xmlns="http://www.w3.org/2000/svg" width="15" height="14" viewBox="0 0 15 14">
  <g id="Vector_Smart_Object5" data-name="Vector Smart Object5" transform="translate(-1.154 -1.75)">
    <path id="Path_94" data-name="Path 94" d="M5.769,1.75a4.668,4.668,0,0,0-2.308,8.7v5.3H16.154V4.083H13.269V3.5H12.115v.583H9.754A4.6,4.6,0,0,0,5.769,1.75Zm0,1.167a3.5,3.5,0,1,1-3.462,3.5A3.473,3.473,0,0,1,5.769,2.917ZM10.222,5.25h1.893v.583h1.154V5.25H15V6.417H10.385A4.652,4.652,0,0,0,10.222,5.25Zm0,2.333H15v7H4.615V10.919a4.507,4.507,0,0,0,1.154.164A4.63,4.63,0,0,0,10.222,7.583Zm2.47,2.333v1.167h1.154V9.917ZM5.769,12.25v1.167H6.923V12.25Zm2.308,0v1.167H9.231V12.25Zm2.308,0v1.167h1.154V12.25Zm2.308,0v1.167h1.154V12.25Z" fill="#39c0c0"/>
    <path id="Path_95" data-name="Path 95" d="M5.192,4.083V6.745l-.992,1,.829.839L6.184,7.419l.162-.182V4.083Z" fill="#7c7c7c"/>
    <rect id="Rectangle_9" data-name="Rectangle 9" width="1.154" height="1.167" transform="translate(10.385 9.917)" fill="#7c7c7c"/>
  </g>
</svg>
