<svg id="Vector_Smart_Object" data-name="Vector Smart Object" xmlns="http://www.w3.org/2000/svg" xmlns:xlink="http://www.w3.org/1999/xlink" width="19" height="18" viewBox="0 0 19 18">
  <defs>
    <clipPath id="clip-path">
      <rect id="Rectangle_11" data-name="Rectangle 11" width="19" height="18" fill="none"/>
    </clipPath>
  </defs>
  <g id="Group_23" data-name="Group 23">
    <g id="Group_22" data-name="Group 22" clip-path="url(#clip-path)">
      <path id="Path_94" data-name="Path 94" d="M5.846,0A5.936,5.936,0,0,0,0,6a6.02,6.02,0,0,0,2.923,5.18V18H19V3H15.346V2.25H13.885V3H10.893A5.812,5.812,0,0,0,5.846,0m0,1.5A4.434,4.434,0,0,1,10.231,6a4.434,4.434,0,0,1-4.385,4.5A4.434,4.434,0,0,1,1.462,6,4.434,4.434,0,0,1,5.846,1.5m5.64,3h2.4v.75h1.462V4.5h2.192V6H11.692a6.048,6.048,0,0,0-.206-1.5m0,3h6.052v9H4.385V11.789A5.63,5.63,0,0,0,5.846,12a5.882,5.882,0,0,0,5.64-4.5M14.615,12h1.462V10.5H14.615ZM5.846,15H7.308V13.5H5.846Zm2.923,0h1.462V13.5H8.769Zm2.923,0h1.462V13.5H11.692Zm2.923,0h1.462V13.5H14.615Z" fill="#39c0c0"/>
      <path id="Path_95" data-name="Path 95" d="M5.115,3V6.422L3.859,7.711,4.91,8.789l1.462-1.5.205-.234V3Z" fill="#ededed"/>
      <rect id="Rectangle_10" data-name="Rectangle 10" width="1.462" height="1.5" transform="translate(11.692 10.5)" fill="#ededed"/>
    </g>
  </g>
</svg>
