<svg xmlns="http://www.w3.org/2000/svg" xmlns:xlink="http://www.w3.org/1999/xlink" width="574" height="448" viewBox="0 0 574 448">
  <defs>
    <clipPath id="clip-path">
      <rect id="Rectangle_4" data-name="Rectangle 4" width="532" height="448" transform="translate(0 0.419)" fill="none"/>
    </clipPath>
    <clipPath id="clip-path-2">
      <rect id="Rectangle_5" data-name="Rectangle 5" width="20" height="20" transform="translate(0.476 -0.385)" fill="none"/>
    </clipPath>
    <clipPath id="clip-path-3">
      <rect id="Rectangle_6" data-name="Rectangle 6" width="11" height="11" transform="translate(-0.172 0.172)" fill="none"/>
    </clipPath>
    <clipPath id="clip-path-4">
      <rect id="Rectangle_7" data-name="Rectangle 7" width="10" height="11" transform="translate(0.388 -0.282)" fill="none"/>
    </clipPath>
    <clipPath id="clip-path-5">
      <rect id="Rectangle_8" data-name="Rectangle 8" width="23" height="24" transform="translate(0.255 0.249)" fill="none"/>
    </clipPath>
    <clipPath id="clip-path-6">
      <rect id="Rectangle_18" data-name="Rectangle 18" width="570" height="329" transform="translate(0.15 0.271)" fill="none"/>
    </clipPath>
    <clipPath id="clip-path-7">
      <rect id="Rectangle_17" data-name="Rectangle 17" width="570" height="329" transform="translate(0.15 0.272)" fill="none"/>
    </clipPath>
    <clipPath id="clip-path-8">
      <rect id="Rectangle_9" data-name="Rectangle 9" width="337.691" height="123.312" fill="none"/>
    </clipPath>
    <clipPath id="clip-path-9">
      <rect id="Rectangle_10" data-name="Rectangle 10" width="156.427" height="102.656" fill="none"/>
    </clipPath>
    <clipPath id="clip-path-10">
      <rect id="Rectangle_11" data-name="Rectangle 11" width="150.644" height="72.973" fill="none"/>
    </clipPath>
    <clipPath id="clip-path-11">
      <rect id="Rectangle_12" data-name="Rectangle 12" width="21.421" height="28.028" fill="none"/>
    </clipPath>
    <clipPath id="clip-path-12">
      <rect id="Rectangle_13" data-name="Rectangle 13" width="5.355" height="5.858" fill="none"/>
    </clipPath>
    <clipPath id="clip-path-13">
      <rect id="Rectangle_14" data-name="Rectangle 14" width="5.804" height="5.532" fill="none"/>
    </clipPath>
    <clipPath id="clip-path-14">
      <rect id="Rectangle_15" data-name="Rectangle 15" width="156.783" height="95.641" fill="none"/>
    </clipPath>
    <clipPath id="clip-path-15">
      <rect id="Rectangle_16" data-name="Rectangle 16" width="80.798" height="80.858" fill="none"/>
    </clipPath>
  </defs>
  <g id="Group_1" data-name="Group 1" transform="translate(-325 -272.543)">
    <g id="Vector_Smart_Object" data-name="Vector Smart Object" transform="translate(325 272.124)" opacity="0.7">
      <g id="Group_8" data-name="Group 8" transform="translate(0 0)">
        <g id="Group_7" data-name="Group 7" clip-path="url(#clip-path)">
          <path id="Path_4" data-name="Path 4" d="M193.826,84.211a141.892,141.892,0,0,1,18.726-29.844c60.695-74.256,179.958-68,249.891-8.144,77.559,66.384,70.388,178.107,68.8,197.2-5.515,66.408-39.989,174.507-119.288,196.527-36.839,10.23-71.99-1.274-102.656-22.613-24.219-16.853-56.153-15.28-79.27,4.476a109.722,109.722,0,0,1-29.319,18.263c-24.507,10.125-46.322,7.412-55.771,6.118C71.282,436.1-.673,352.228,0,273.806c.778-89.99,97.079-159.015,193.821-189.6" transform="translate(0 0.317)" fill="#002fab"/>
        </g>
      </g>
    </g>
    <g id="Vector_Smart_Object-2" data-name="Vector Smart Object" transform="translate(728.524 302.928)">
      <g id="Group_10" data-name="Group 10" transform="translate(0 0)">
        <g id="Group_9" data-name="Group 9" clip-path="url(#clip-path-2)">
          <path id="Path_5" data-name="Path 5" d="M11.16,2.481,15.56.16A1.36,1.36,0,0,1,17.532,1.6l-.84,4.918a1.367,1.367,0,0,0,.391,1.207l3.56,3.483a1.365,1.365,0,0,1-.753,2.326l-4.92.717a1.359,1.359,0,0,0-1.023.746l-2.2,4.474a1.357,1.357,0,0,1-2.437,0l-2.2-4.474a1.359,1.359,0,0,0-1.023-.746l-4.92-.717A1.365,1.365,0,0,1,.412,11.2l3.56-3.483a1.367,1.367,0,0,0,.391-1.207L3.523,1.6A1.36,1.36,0,0,1,5.494.16L9.9,2.481a1.354,1.354,0,0,0,1.265,0" transform="translate(-0.183 -0.349)" fill="#ddd"/>
        </g>
      </g>
    </g>
    <g id="Vector_Smart_Object-3" data-name="Vector Smart Object" transform="translate(619.172 703.371)">
      <g id="Group_12" data-name="Group 12" transform="translate(0 0)">
        <g id="Group_11" data-name="Group 11" clip-path="url(#clip-path-3)">
          <path id="Path_6" data-name="Path 6" d="M10.734,5.367A5.367,5.367,0,1,1,5.367,0a5.367,5.367,0,0,1,5.367,5.367" transform="translate(-0.233 0.071)" fill="#f4b545"/>
        </g>
      </g>
    </g>
    <g id="Vector_Smart_Object-4" data-name="Vector Smart Object" transform="translate(530.612 279.826)">
      <g id="Group_14" data-name="Group 14" transform="translate(0 0)">
        <g id="Group_13" data-name="Group 13" clip-path="url(#clip-path-4)">
          <path id="Path_7" data-name="Path 7" d="M10.734,5.367A5.367,5.367,0,1,1,5.367,0a5.367,5.367,0,0,1,5.367,5.367" transform="translate(-0.02 0.047)" fill="#50eae5"/>
        </g>
      </g>
    </g>
    <g id="Vector_Smart_Object-5" data-name="Vector Smart Object" transform="translate(372.745 633.294)">
      <g id="Group_16" data-name="Group 16" transform="translate(0 0)">
        <g id="Group_15" data-name="Group 15" clip-path="url(#clip-path-5)">
          <path id="Path_8" data-name="Path 8" d="M11.559,23.119A11.559,11.559,0,1,1,23.119,11.56a11.571,11.571,0,0,1-11.56,11.559m0-19.938a8.379,8.379,0,1,0,8.38,8.38,8.389,8.389,0,0,0-8.38-8.38" transform="translate(0.144 0.379)" fill="#aefff9"/>
          <path id="Path_9" data-name="Path 9" d="M25.513,19.628a5.887,5.887,0,1,1-5.887-5.887,5.887,5.887,0,0,1,5.887,5.887" transform="translate(-7.924 -7.689)" fill="#aefff9"/>
        </g>
      </g>
    </g>
    <g id="Vector_Smart_Object-6" data-name="Vector Smart Object" transform="translate(328.85 335.271)">
      <g id="Group_44" data-name="Group 44" transform="translate(0 0)">
        <g id="Group_43" data-name="Group 43" clip-path="url(#clip-path-6)">
          <g id="Group_42" data-name="Group 42" transform="translate(0 0)">
            <g id="Group_41" data-name="Group 41" clip-path="url(#clip-path-7)">
              <path id="Path_10" data-name="Path 10" d="M642.248,319.705V496.657c0,.215-.01.43-.02.656,0,.1-.01.2-.02.307s-.01.195-.021.3c0,.041-.01.082-.01.123-.01.072-.021.133-.031.195-.01.154-.041.308-.061.461s-.051.3-.082.441a1.613,1.613,0,0,1-.051.215.46.46,0,0,1-.031.164,1.634,1.634,0,0,1-.051.215c-.031.133-.072.267-.1.39a.185.185,0,0,1-.021.072c-.071.226-.133.451-.215.666a.039.039,0,0,1-.01.031c-.041.113-.082.225-.123.328s-.082.195-.113.287a.424.424,0,0,0-.031.082c-.123.277-.246.564-.389.83-.041.082-.092.185-.143.277s-.1.174-.154.267-.092.174-.154.256c-.1.174-.215.348-.328.513-.071.113-.143.2-.2.307-.174.225-.338.451-.522.666q-.2.246-.4.461c-.133.154-.276.3-.42.441-.061.072-.133.133-.2.205a1.538,1.538,0,0,1-.195.174c-.072.072-.154.144-.236.216-.02.02-.051.041-.072.061-.195.174-.4.338-.6.492a.283.283,0,0,0-.062.051c-.164.113-.328.236-.5.349-.062.041-.113.082-.164.113-.092.062-.184.123-.276.174a1.609,1.609,0,0,1-.225.133c-.082.051-.164.1-.246.143a11.472,11.472,0,0,1-1.8.83c-.041.01-.072.031-.113.041s-.092.031-.133.041c-.144.051-.287.1-.44.143-.256.082-.512.143-.769.205l-.4.092a2.169,2.169,0,0,1-.256.041l-.318.062c-.02,0-.031,0-.041.01l-.256.031c-.041,0-.082.01-.123.01l-.225.03c-.041,0-.082.01-.133.01l-.471.031c-.225.01-.451.02-.676.02H317.208c-.225,0-.451-.01-.676-.02l-.471-.031a4.58,4.58,0,0,1-.523-.061,2.7,2.7,0,0,1-.3-.041c-.246-.031-.492-.082-.727-.133a1.48,1.48,0,0,1-.2-.051c-.256-.062-.512-.123-.768-.205-.154-.051-.3-.092-.44-.143a13.758,13.758,0,0,1-1.987-.871l-.461-.277c-.174-.1-.348-.215-.512-.328a12.765,12.765,0,0,1-2.694-2.45q-.276-.323-.522-.677a12.128,12.128,0,0,1-1.4-2.522c-.082-.205-.164-.431-.246-.646s-.143-.441-.215-.666-.123-.451-.174-.676-.092-.42-.133-.636c-.01-.03-.01-.072-.02-.1-.031-.205-.062-.42-.082-.625a.076.076,0,0,1-.01-.051c-.02-.164-.031-.318-.041-.482-.031-.318-.041-.636-.041-.963V319.705a12.618,12.618,0,0,1,4.609-9.769.594.594,0,0,1,.082-.061l.655-.5a12.545,12.545,0,0,1,7.3-2.327H629.6a8.62,8.62,0,0,1,.9.041.447.447,0,0,1,.164.01c.287.02.584.051.86.092l.195.031c.246.041.492.092.727.154a1.16,1.16,0,0,1,.184.041c.3.072.584.154.871.246.266.082.543.185.8.287a10.229,10.229,0,0,1,1.075.5,6.172,6.172,0,0,1,.574.307,8.256,8.256,0,0,1,.942.615c.01-.011.01,0,.01,0l.656.5a.581.581,0,0,1,.082.061c.174.133.328.277.482.42.123.1.236.215.348.328a11.075,11.075,0,0,1,.983,1.087q.215.261.4.523a11.89,11.89,0,0,1,1.342,2.358c.1.226.194.462.287.7,0,.01.01.021.01.031a11.69,11.69,0,0,1,.358,1.158c.051.2.092.38.133.574.031.154.061.3.082.451s.051.308.071.461a5.072,5.072,0,0,1,.061.554,3.641,3.641,0,0,1,.031.471c.01.215.02.441.02.656" transform="translate(-178.96 -179.952)" fill="#dfe5ea"/>
              <path id="Path_11" data-name="Path 11" d="M642.568,146.694H306.393a12.659,12.659,0,0,1,3.852-5.443.6.6,0,0,1,.082-.061l.655-.5L466.732,22.371a12.792,12.792,0,0,1,15.5,0L637.969,140.687c.01-.011.01,0,.01,0l.656.5a.584.584,0,0,1,.082.061c.174.134.328.277.481.42.123.1.236.215.348.328a11.1,11.1,0,0,1,.983,1.087q.215.261.4.523a11.877,11.877,0,0,1,1.342,2.357c.1.226.195.462.287.7,0,.01.01.02.01.031" transform="translate(-180.038 -11.266)" fill="#5b97ef"/>
              <path id="Path_12" data-name="Path 12" d="M646.557,363.582H353.189V97.2a22.654,22.654,0,0,1,22.645-22.662H623.912A22.654,22.654,0,0,1,646.557,97.2Z" transform="translate(-207.515 -43.429)" fill="#fff"/>
              <path id="Path_13" data-name="Path 13" d="M655.174,210.507H439.608a5.509,5.509,0,0,1-5.491-5.495v-2.337a5.509,5.509,0,0,1,5.491-5.495H655.174a5.509,5.509,0,0,1,5.491,5.495v2.337a5.509,5.509,0,0,1-5.491,5.495" transform="translate(-255.033 -115.444)" fill="#e4ecf9"/>
              <path id="Path_14" data-name="Path 14" d="M655.174,279.467H439.608a5.509,5.509,0,0,1-5.491-5.495v-2.336a5.509,5.509,0,0,1,5.491-5.5H655.174a5.509,5.509,0,0,1,5.491,5.5v2.336a5.509,5.509,0,0,1-5.491,5.495" transform="translate(-255.033 -155.935)" fill="#e4ecf9"/>
              <path id="Path_15" data-name="Path 15" d="M655.174,348.428H439.608a5.509,5.509,0,0,1-5.491-5.495V340.6a5.509,5.509,0,0,1,5.491-5.495H655.174a5.509,5.509,0,0,1,5.491,5.495v2.336a5.509,5.509,0,0,1-5.491,5.495" transform="translate(-255.033 -196.426)" fill="#e4ecf9"/>
              <path id="Path_16" data-name="Path 16" d="M655.174,417.388H439.608a5.509,5.509,0,0,1-5.491-5.5v-2.336a5.509,5.509,0,0,1,5.491-5.495H655.174a5.509,5.509,0,0,1,5.491,5.495v2.336a5.509,5.509,0,0,1-5.491,5.5" transform="translate(-255.033 -236.917)" fill="#e4ecf9"/>
              <path id="Path_17" data-name="Path 17" d="M655.174,486.348H439.608a5.509,5.509,0,0,1-5.491-5.495v-2.337a5.509,5.509,0,0,1,5.491-5.495H655.174a5.509,5.509,0,0,1,5.491,5.495v2.337a5.509,5.509,0,0,1-5.491,5.495" transform="translate(-255.033 -277.407)" fill="#e4ecf9"/>
              <path id="Path_18" data-name="Path 18" d="M473.408,412.927v.01a8.278,8.278,0,0,1-1.741,1.435L317.9,509.316h-.7a12.353,12.353,0,0,1-3.667-.543c-.164-.051-.328-.1-.482-.154a12.531,12.531,0,0,1-5.214-3.455q-.2-.216-.4-.461a11.822,11.822,0,0,1-1.055-1.486c-.113-.174-.2-.349-.307-.523s-.194-.369-.276-.554a12.6,12.6,0,0,1-1.25-5.484V319.705a12.618,12.618,0,0,1,4.609-9.769.589.589,0,0,1,.082-.061l.655-.5a12.545,12.545,0,0,1,7.3-2.327H320.1l13.5,8.334,124.456,76.851,4.681,2.891,8.932,5.515a8.287,8.287,0,0,1,1.741,1.435v.01a8.1,8.1,0,0,1,0,10.846" transform="translate(-178.96 -179.952)" fill="#3b82f4"/>
              <path id="Path_19" data-name="Path 19" d="M879.427,319.705V496.657c0,.215-.01.43-.02.656,0,.1-.01.2-.02.307s-.01.195-.021.3c0,.041-.01.082-.01.123-.01.072-.021.133-.031.195-.01.154-.041.308-.061.461s-.051.3-.082.441c0,.021-.01.051-.01.072a1.075,1.075,0,0,1-.041.144.46.46,0,0,1-.031.164,1.644,1.644,0,0,1-.051.215c-.031.133-.061.256-.1.39a.187.187,0,0,1-.021.072c-.061.226-.133.451-.215.666a.039.039,0,0,1-.01.031c-.041.113-.072.215-.123.328-.031.092-.072.184-.113.287a.669.669,0,0,0-.031.082c-.123.277-.246.564-.389.83-.041.082-.092.185-.143.277s-.1.174-.154.267-.092.174-.154.256c-.1.174-.215.348-.328.513-.071.113-.143.2-.2.307-.174.236-.348.451-.522.666q-.2.246-.4.461c-.133.154-.276.3-.42.441-.061.072-.133.133-.2.205a1.536,1.536,0,0,1-.194.174c-.072.072-.154.144-.236.216-.02.02-.051.041-.072.061-.195.174-.4.338-.6.492a.28.28,0,0,0-.062.051c-.164.113-.328.236-.5.349-.062.041-.113.082-.164.113-.092.062-.184.123-.276.174a1.61,1.61,0,0,1-.226.133c-.082.051-.164.1-.246.143a11.476,11.476,0,0,1-1.8.83c-.041.01-.082.031-.113.041s-.092.031-.133.041c-.144.051-.287.1-.44.143-.256.082-.512.143-.768.205l-.4.092a2.172,2.172,0,0,1-.256.041l-.318.062h-.031c-.092.01-.184.031-.266.041-.041,0-.082.01-.123.01-.071.01-.143.02-.225.03-.041,0-.082.01-.133.01l-.471.031c-.225.01-.451.02-.676.02h-.7L712.318,414.373a7.968,7.968,0,0,1-1.731-1.435v-.01a8.082,8.082,0,0,1,0-10.846v-.01a7.975,7.975,0,0,1,1.731-1.435l8.922-5.515,4.681-2.891L850.387,315.38l13.5-8.334h2.888a8.621,8.621,0,0,1,.9.041.446.446,0,0,1,.164.01c.287.02.584.051.86.092l.195.031c.246.041.492.092.727.154a1.161,1.161,0,0,1,.184.041c.3.072.584.154.871.246.266.082.543.185.8.287a10.241,10.241,0,0,1,1.075.5,6.179,6.179,0,0,1,.574.307,8.256,8.256,0,0,1,.942.615c.01-.011.01,0,.01,0l.656.5a.591.591,0,0,1,.082.061c.174.133.328.277.482.42.123.1.236.215.348.328a11.06,11.06,0,0,1,.983,1.087q.215.261.4.523a11.89,11.89,0,0,1,1.342,2.358c.1.226.195.462.287.7,0,.01.01.021.01.031a11.674,11.674,0,0,1,.358,1.158c.051.2.092.38.133.574.031.154.061.3.082.451s.051.308.071.461a5.088,5.088,0,0,1,.061.554,3.641,3.641,0,0,1,.031.471c.01.215.02.441.02.656" transform="translate(-416.139 -179.952)" fill="#3b82f4"/>
              <g id="Group_19" data-name="Group 19" transform="translate(125.597 206.053)" opacity="0.29">
                <g id="Group_18" data-name="Group 18">
                  <g id="Group_17" data-name="Group 17" clip-path="url(#clip-path-8)">
                    <path id="Path_20" data-name="Path 20" d="M642.248,606.563v1.84c0,7.3-5.665,13.215-12.651,13.215H317.208c-6.986,0-12.651-5.917-12.651-13.215v-1.84L465.234,500.771a14.758,14.758,0,0,1,16.328,0Z" transform="translate(-304.557 -498.307)" fill="#474747"/>
                  </g>
                </g>
              </g>
              <path id="Path_21" data-name="Path 21" d="M642.248,614.559v1.763a12.656,12.656,0,0,1-12.651,12.66H317.208a12.656,12.656,0,0,1-12.651-12.66v-1.763L465.234,513.208a15.3,15.3,0,0,1,16.328,0Z" transform="translate(-178.96 -299.618)" fill="#5b97ef"/>
              <path id="Path_22" data-name="Path 22" d="M533.62,141.547H439.608a5.509,5.509,0,0,1-5.491-5.495v-2.336a5.509,5.509,0,0,1,5.491-5.495H533.62a5.509,5.509,0,0,1,5.491,5.495v2.336a5.509,5.509,0,0,1-5.491,5.495" transform="translate(-255.033 -74.953)" fill="#3b82f4"/>
              <path id="Path_23" data-name="Path 23" d="M169.309,380.2l-.084,0c-3.745-.149-7.515-.473-11.2-.963a2.074,2.074,0,0,1,.545-4.112c3.564.472,7.206.786,10.826.93a2.075,2.075,0,0,1-.081,4.148m11.049-.052a2.075,2.075,0,0,1-.1-4.148c3.575-.173,7.221-.506,10.835-.99a2.074,2.074,0,0,1,.549,4.112c-3.73.5-7.493.844-11.183,1.023l-.1,0m-32.944-2.863a2.113,2.113,0,0,1-.466-.053c-3.636-.836-7.281-1.858-10.834-3.038a2.074,2.074,0,0,1,1.3-3.938c3.43,1.139,6.949,2.125,10.458,2.932a2.075,2.075,0,0,1-.463,4.1m54.846-.041a2.075,2.075,0,0,1-.434-4.1c3.516-.756,7.071-1.663,10.567-2.693a2.075,2.075,0,0,1,1.172,3.98c-3.594,1.061-7.25,1.991-10.867,2.769a2.051,2.051,0,0,1-.437.047m21.212-6.23a2.075,2.075,0,0,1-.725-4.019c3.387-1.263,6.784-2.665,10.1-4.167a2.074,2.074,0,0,1,1.711,3.78c-3.4,1.54-6.882,2.979-10.357,4.276a2.081,2.081,0,0,1-.724.131m-97.041-.657a2.079,2.079,0,0,1-.815-.168c-3.356-1.439-6.767-3.053-10.137-4.8a2.074,2.074,0,1,1,1.9-3.685c3.283,1.7,6.6,3.269,9.867,4.668a2.076,2.076,0,0,1-.818,3.983m117.18-8.481a2.075,2.075,0,0,1-.988-3.9c2.915-1.577,5.689-3.206,8.245-4.841a2.074,2.074,0,0,1,2.233,3.5c-2.64,1.689-5.5,3.369-8.505,4.995a2.061,2.061,0,0,1-.984.25m-136.831-1.67a2.064,2.064,0,0,1-1.074-.3c-3.211-1.95-6.365-4.017-9.375-6.142a2.074,2.074,0,0,1,2.391-3.391c2.932,2.07,6.006,4.083,9.136,5.984a2.076,2.076,0,0,1-1.077,3.849m-18.06-12.779a2.064,2.064,0,0,1-1.317-.474c-2.81-2.317-5.5-4.723-8.012-7.154A2.1,2.1,0,0,1,81.56,336.2a93.678,93.678,0,0,0,10.142,1.7,2.075,2.075,0,0,1-.456,4.124q-1.922-.213-3.854-.506,1.3,1.132,2.649,2.243a2.075,2.075,0,0,1-1.32,3.676m13.787-4.836a2.075,2.075,0,0,1-.018-4.15c2.888-.025,5.8-.193,8.67-.5.587-.063,1.28-.137,2.138-.24a2.074,2.074,0,0,1,.492,4.12c-.879.1-1.588.182-2.105.237q-4.628.492-9.158.53Zm21.968-2.563a2.075,2.075,0,0,1-.425-4.105c3.611-.761,7.156-1.675,10.536-2.719a2.075,2.075,0,0,1,1.223,3.966c-3.5,1.079-7.169,2.027-10.9,2.814a2.071,2.071,0,0,1-.43.045M69.97,337.1a2.065,2.065,0,0,1-.687-.118,103.748,103.748,0,0,1-10.419-4.321,2.075,2.075,0,0,1,1.794-3.742,99.214,99.214,0,0,0,10,4.149,2.075,2.075,0,0,1-.687,4.032m75.622-3.634a2.075,2.075,0,0,1-.82-3.982A83.075,83.075,0,0,0,154.4,324.6a2.075,2.075,0,0,1,2.118,3.568,87.212,87.212,0,0,1-10.106,5.122,2.071,2.071,0,0,1-.817.169m-72.631-1.511a2.069,2.069,0,0,1-1.589-.741,95.733,95.733,0,0,1-6.758-9.06,2.074,2.074,0,1,1,3.468-2.275,91.7,91.7,0,0,0,6.464,8.666,2.075,2.075,0,0,1-1.586,3.41m-22.9-4.4a2.067,2.067,0,0,1-1.089-.31,106.861,106.861,0,0,1-9.257-6.436,2.074,2.074,0,0,1,2.542-3.277,102.813,102.813,0,0,0,8.9,6.183,2.076,2.076,0,0,1-1.093,3.84m114.418-5.46a2.075,2.075,0,0,1-1.334-3.664,54.573,54.573,0,0,0,7.455-7.582,2.074,2.074,0,1,1,3.232,2.6,58.84,58.84,0,0,1-8.021,8.16,2.063,2.063,0,0,1-1.332.486M32.629,314.006a2.064,2.064,0,0,1-1.438-.581,104.357,104.357,0,0,1-7.691-8.25,2.074,2.074,0,1,1,3.18-2.662,100.718,100.718,0,0,0,7.386,7.922,2.075,2.075,0,0,1-1.438,3.57m28.325-.566a2.072,2.072,0,0,1-1.881-1.2,66.2,66.2,0,0,1-3.921-10.707,2.073,2.073,0,1,1,4-1.076,62.072,62.072,0,0,0,3.676,10.032,2.074,2.074,0,0,1-1.879,2.951m117.2-8.513a2.074,2.074,0,0,1-1.857-2.994,49.173,49.173,0,0,0,3.475-9.361l.15-.586a2.073,2.073,0,1,1,4.022,1.007l-.159.625a53.28,53.28,0,0,1-3.771,10.153,2.074,2.074,0,0,1-1.86,1.156M18.483,297.059a2.07,2.07,0,0,1-1.73-.93,99.319,99.319,0,0,1-5.688-9.755,2.073,2.073,0,1,1,3.695-1.883,95.279,95.279,0,0,0,5.45,9.347,2.075,2.075,0,0,1-1.726,3.221m36.86-4.869a2.074,2.074,0,0,1-2.067-1.941c-.077-1.181-.115-2.382-.115-3.569a55.856,55.856,0,0,1,.564-7.893,2.073,2.073,0,1,1,4.1.59,51.638,51.638,0,0,0-.523,7.3c0,1.1.036,2.209.107,3.3a2.074,2.074,0,0,1-1.935,2.2c-.045,0-.091,0-.136,0M183.5,283.627l-.091,0a2.074,2.074,0,0,1-1.982-2.162q.052-1.2.051-2.4a58.708,58.708,0,0,0-.591-8.246,2.073,2.073,0,1,1,4.1-.585,62.84,62.84,0,0,1,.632,8.83q0,1.292-.055,2.585a2.075,2.075,0,0,1-2.069,1.985M8.467,277.383a2.073,2.073,0,0,1-1.942-1.35,102.476,102.476,0,0,1-3.35-10.782A2.073,2.073,0,1,1,7.2,264.24a98.258,98.258,0,0,0,3.213,10.343,2.074,2.074,0,0,1-1.942,2.8m49.917-6.965a2.075,2.075,0,0,1-1.963-2.743,75.259,75.259,0,0,1,4.483-10.45,2.074,2.074,0,1,1,3.679,1.916,71.1,71.1,0,0,0-4.236,9.87,2.074,2.074,0,0,1-1.963,1.407m122.061-8.591a2.074,2.074,0,0,1-1.973-1.439,66.846,66.846,0,0,0-4.1-9.9,2.074,2.074,0,1,1,3.692-1.89,71.111,71.111,0,0,1,4.355,10.521,2.075,2.075,0,0,1-1.974,2.712M3.063,255.966a2.074,2.074,0,0,1-2.051-1.784A112.618,112.618,0,0,1,0,242.956a2.073,2.073,0,1,1,4.144-.165A108.308,108.308,0,0,0,5.118,253.6a2.078,2.078,0,0,1-2.055,2.367M68.5,250.814a2.075,2.075,0,0,1-1.693-3.269,89.731,89.731,0,0,1,7.09-8.827,2.074,2.074,0,1,1,3.061,2.8,85.682,85.682,0,0,0-6.761,8.416,2.069,2.069,0,0,1-1.7.881M170.425,242.2a2.072,2.072,0,0,1-1.675-.849,65.475,65.475,0,0,0-7.008-8.1,2.074,2.074,0,0,1,2.9-2.966A69.629,69.629,0,0,1,172.1,238.9a2.075,2.075,0,0,1-1.671,3.3m-87.041-7.689a2.075,2.075,0,0,1-1.342-3.657,83.6,83.6,0,0,1,9.116-6.736,2.074,2.074,0,0,1,2.227,3.5,79.345,79.345,0,0,0-8.662,6.4,2.065,2.065,0,0,1-1.339.492m-81.212-.625c-.04,0-.08,0-.121,0A2.075,2.075,0,0,1,.1,231.692a112.1,112.1,0,0,1,1.2-11.208,2.073,2.073,0,1,1,4.094.655,107.98,107.98,0,0,0-1.157,10.792,2.075,2.075,0,0,1-2.068,1.956m152.475-7.051a2.062,2.062,0,0,1-1.162-.358,53.9,53.9,0,0,0-9.334-5.087,2.075,2.075,0,0,1,1.607-3.826,58.048,58.048,0,0,1,10.054,5.479,2.075,2.075,0,0,1-1.165,3.792m-52.641-4.113a2.075,2.075,0,0,1-.835-3.974,65.235,65.235,0,0,1,10.791-3.679,2.075,2.075,0,0,1,.98,4.032,61.092,61.092,0,0,0-10.1,3.445,2.057,2.057,0,0,1-.833.176m32.379-4.33a2.091,2.091,0,0,1-.375-.034,48.254,48.254,0,0,0-8.649-.78c-.586-.011-1.273.012-1.908.037a2.075,2.075,0,0,1-.16-4.147c.689-.026,1.426-.014,2.069-.039a52.415,52.415,0,0,1,9.393.847,2.075,2.075,0,0,1-.37,4.116M5.734,212.085a2.075,2.075,0,0,1-2-2.637,105.152,105.152,0,0,1,3.633-10.674,2.074,2.074,0,1,1,3.848,1.548,100.8,100.8,0,0,0-3.489,10.25,2.074,2.074,0,0,1-1.995,1.513M13.95,191.6a2.075,2.075,0,0,1-1.829-3.047,109.783,109.783,0,0,1,5.787-9.673,2.074,2.074,0,1,1,3.443,2.312,105.634,105.634,0,0,0-5.568,9.3,2.072,2.072,0,0,1-1.833,1.1m12.288-18.358a2.074,2.074,0,0,1-1.6-3.4c2.371-2.872,4.922-5.673,7.582-8.325a2.074,2.074,0,0,1,2.927,2.939c-2.565,2.559-5.025,5.26-7.313,8.03a2.067,2.067,0,0,1-1.6.753m15.64-15.612a2.075,2.075,0,0,1-1.321-3.675c2.868-2.37,5.893-4.645,8.99-6.764a2.074,2.074,0,0,1,2.34,3.426c-3,2.049-5.92,4.248-8.691,6.538a2.061,2.061,0,0,1-1.318.475M60.12,145.146a2.075,2.075,0,0,1-1.015-3.885c3.243-1.82,6.62-3.526,10.035-5.07a2.074,2.074,0,0,1,1.707,3.781c-3.307,1.5-6.576,3.147-9.715,4.908a2.062,2.062,0,0,1-1.012.266m20.14-9.115A2.075,2.075,0,0,1,79.569,132c3.505-1.239,7.116-2.348,10.732-3.3a2.075,2.075,0,0,1,1.05,4.015c-3.5.918-7,1.994-10.4,3.195a2.081,2.081,0,0,1-.691.119" transform="translate(-0.135 -75.196)" fill="#f4b545"/>
              <g id="Group_22" data-name="Group 22" transform="translate(27.097 3.546)" opacity="0.1">
                <g id="Group_21" data-name="Group 21">
                  <g id="Group_20" data-name="Group 20" clip-path="url(#clip-path-9)">
                    <path id="Path_24" data-name="Path 24" d="M222.391,7.782,65.964,28.669l37.924,28.786.594,52.983,32.681-27.779,18.364,13.857Z" transform="translate(-65.964 -7.781)" fill="#232323"/>
                  </g>
                </g>
              </g>
              <path id="Path_25" data-name="Path 25" d="M166.3,102.655l-.868-77.393L284.208,0Z" transform="translate(-97.271 0.335)" fill="#46c1aa"/>
              <path id="Path_26" data-name="Path 26" d="M112.413,49.868C113.014,49.566,230.659,0,230.659,0L74.232,20.886Z" transform="translate(-43.721 0.335)" fill="#52d1bd"/>
              <path id="Path_27" data-name="Path 27" d="M180.163,140.264l-12.629,42.91L221.7,137.129Z" transform="translate(-98.505 -80.184)" fill="#3caf99"/>
              <path id="Path_28" data-name="Path 28" d="M198.125,59.746,236.54,88.733,303.4,0Z" transform="translate(-116.467 0.335)" fill="#52d1bd"/>
              <g id="Group_25" data-name="Group 25" transform="translate(345.752 142.786)" opacity="0.1">
                <g id="Group_24" data-name="Group 24">
                  <g id="Group_23" data-name="Group 23" clip-path="url(#clip-path-10)">
                    <path id="Path_29" data-name="Path 29" d="M984.859,348.456a3.638,3.638,0,0,0-3.849-3.391l-139.782,8.892a3.639,3.639,0,0,0-3.389,3.852l3.609,56.823a3.638,3.638,0,0,0,3.849,3.392l139.782-8.892a3.639,3.639,0,0,0,3.389-3.852Z" transform="translate(-837.832 -345.058)" fill="#232323"/>
                  </g>
                </g>
              </g>
              <path id="Path_30" data-name="Path 30" d="M993.642,396.477,853.86,405.368a3.638,3.638,0,0,1-3.849-3.391L846.4,345.154a3.639,3.639,0,0,1,3.389-3.852l139.782-8.892a3.638,3.638,0,0,1,3.849,3.392l3.609,56.823a3.638,3.638,0,0,1-3.389,3.852" transform="translate(-497.107 -194.841)" fill="#fff"/>
              <path id="Path_31" data-name="Path 31" d="M1076.136,365.446l-61,3.88a2.877,2.877,0,0,1-3.044-2.682l-.009-.144a2.877,2.877,0,0,1,2.68-3.046l61-3.88a2.877,2.877,0,0,1,3.044,2.682l.009.144a2.878,2.878,0,0,1-2.68,3.046" transform="translate(-594.391 -210.792)" fill="#3b82f4"/>
              <path id="Path_32" data-name="Path 32" d="M1078.106,396.468l-61,3.88a2.877,2.877,0,0,1-3.044-2.682l-.009-.144a2.877,2.877,0,0,1,2.68-3.046l61-3.88a2.877,2.877,0,0,1,3.044,2.682l.009.144a2.878,2.878,0,0,1-2.68,3.046" transform="translate(-595.548 -229.006)" fill="#ecf3fe"/>
              <path id="Path_33" data-name="Path 33" d="M1080.077,427.49l-61,3.88a2.877,2.877,0,0,1-3.044-2.682l-.009-.144a2.877,2.877,0,0,1,2.68-3.046l61-3.88a2.877,2.877,0,0,1,3.044,2.682l.009.144a2.877,2.877,0,0,1-2.68,3.046" transform="translate(-596.705 -247.222)" fill="#ecf3fe"/>
              <path id="Path_34" data-name="Path 34" d="M1082.047,458.512l-61,3.88a2.877,2.877,0,0,1-3.044-2.682l-.009-.144a2.877,2.877,0,0,1,2.68-3.046l61-3.88a2.877,2.877,0,0,1,3.044,2.682l.009.144a2.877,2.877,0,0,1-2.68,3.046" transform="translate(-597.862 -265.437)" fill="#ecf3fe"/>
              <path id="Path_35" data-name="Path 35" d="M919.369,386.99a26.923,26.923,0,1,1-28.576-25.179,26.936,26.936,0,0,1,28.576,25.179" transform="translate(-508.37 -212.076)" fill="#ecf3fe"/>
              <path id="Path_36" data-name="Path 36" d="M927.958,458.926a21.222,21.222,0,0,1-4.605,3.091,20.463,20.463,0,0,1-2.641,1.1,20.791,20.791,0,0,1-2.981.776,21.424,21.424,0,0,1-15.893-3.3,12.417,12.417,0,0,1,7.1-6.494h0a.01.01,0,0,1,.008,0,11.545,11.545,0,0,1,1.681-.461.679.679,0,0,1,.069-.015,11.931,11.931,0,0,1,1.555-.2l4.471-.284a11.929,11.929,0,0,1,1.568,0,.327.327,0,0,1,.071.006,11.678,11.678,0,0,1,1.729.244h.005v0a12.4,12.4,0,0,1,7.864,5.542" transform="translate(-529.662 -265.713)" fill="#727272"/>
              <path id="Path_37" data-name="Path 37" d="M924.028,386.42l.916,14.415a5.758,5.758,0,0,1-5.378,6.116l-13.54.861a5.759,5.759,0,0,1-6.108-5.386L899,388.012c-.813-12.8,11.737-13.021,11.737-13.021a14.9,14.9,0,0,1,6.538.995c2.944,1.206,5.924,3.785,6.633,9.216.053.389.092.8.119,1.219" transform="translate(-527.974 -219.823)" fill="#302f2f"/>
              <path id="Path_38" data-name="Path 38" d="M930.506,443.465l.269,4.239c.114,1.8-1.532,3.379-3.659,3.514s-3.96-1.226-4.074-3.022l-.269-4.239a2.94,2.94,0,0,1,.67-2.029,3.338,3.338,0,0,1,.356-.386,3.877,3.877,0,0,1,.847-.6,4.482,4.482,0,0,1,3.619-.23,3.863,3.863,0,0,1,.915.489l.043.03a3.355,3.355,0,0,1,.361.308,2.939,2.939,0,0,1,.921,1.927" transform="translate(-541.951 -258.273)" fill="#f4b698"/>
              <g id="Group_28" data-name="Group 28" transform="translate(373.238 160.568)" opacity="0.28">
                <g id="Group_27" data-name="Group 27">
                  <g id="Group_26" data-name="Group 26" clip-path="url(#clip-path-11)">
                    <path id="Path_39" data-name="Path 39" d="M925.416,397.551l.392,6.173a10.148,10.148,0,0,1-6.028,9.9l.1,1.628a9.992,9.992,0,0,1-3.414.834l-.827.053a9.977,9.977,0,0,1-3.492-.394l-.1-1.628a10.146,10.146,0,0,1-7.231-9.054l-.392-6.173a10.141,10.141,0,0,1,9.444-10.684l.827-.053a10.039,10.039,0,0,1,6.408,1.8h0a10.113,10.113,0,0,1,4.311,7.6" transform="translate(-904.408 -388.13)"/>
                  </g>
                </g>
              </g>
              <path id="Path_40" data-name="Path 40" d="M925.172,393.653l.493,7.754a10.058,10.058,0,0,1-1.424,5.834l-.006.007a10.733,10.733,0,0,1-.789,1.127,10.174,10.174,0,0,1-3.806,2.931,9.982,9.982,0,0,1-3.415.832l-.826.053a9.953,9.953,0,0,1-3.49-.393,10.148,10.148,0,0,1-7.234-9.056l-.49-7.713c-.007-.107-.01-.215-.014-.322a10.1,10.1,0,0,1,3.055-7.594,10.24,10.24,0,0,1,.994-.855,10.02,10.02,0,0,1,5.4-2l.826-.053a10.024,10.024,0,0,1,6.22,1.679,10.153,10.153,0,0,1,2.47,2.323,10.045,10.045,0,0,1,2.033,5.447" transform="translate(-531.027 -225.245)" fill="#f4b698"/>
              <path id="Path_41" data-name="Path 41" d="M959.355,411a4.05,4.05,0,0,1-3.782,4.3l-.513-8.083a4.022,4.022,0,0,1,1.6.22l.007,0a4.05,4.05,0,0,1,2.69,3.562" transform="translate(-560.911 -238.761)" fill="#f4b698"/>
              <path id="Path_42" data-name="Path 42" d="M957.955,413.288a2.507,2.507,0,0,1-2.342,2.662l-.318-5.005a2.507,2.507,0,0,1,2.66,2.344" transform="translate(-561.05 -240.955)" fill="#e29586"/>
              <path id="Path_43" data-name="Path 43" d="M930.188,453.775v0l-2.363,10.508a21.516,21.516,0,0,1-5.122.326l-3.674-10.124v0l2.134-.136.08.073,3.59,3.271,3.153-3.7.07-.083Z" transform="translate(-539.755 -266.106)" fill="#565656"/>
              <path id="Path_44" data-name="Path 44" d="M898.824,410.458l.514,8.083a4.051,4.051,0,0,1-1.413-7.923c.061-.018.123-.036.186-.049l.1-.02a3.883,3.883,0,0,1,.613-.09" transform="translate(-525.667 -240.672)" fill="#f4b698"/>
              <path id="Path_45" data-name="Path 45" d="M898.772,416.848a2.506,2.506,0,0,0,2.66,2.344l-.318-5.005a2.507,2.507,0,0,0-2.342,2.662" transform="translate(-527.858 -242.861)" fill="#e29586"/>
              <path id="Path_46" data-name="Path 46" d="M950.114,474.7a20.453,20.453,0,0,1-2.641,1.1l-.059-.926Z" transform="translate(-556.422 -278.39)" fill="#565656"/>
              <g id="Group_31" data-name="Group 31" transform="translate(385.078 187.667)" opacity="0.2">
                <g id="Group_30" data-name="Group 30">
                  <g id="Group_29" data-name="Group 29" clip-path="url(#clip-path-12)">
                    <path id="Path_47" data-name="Path 47" d="M933.089,457.691l3.136,1.938,2.219-5.858Z" transform="translate(-933.089 -453.772)" fill="#363636"/>
                  </g>
                </g>
              </g>
              <path id="Path_48" data-name="Path 48" d="M938.444,453.266l-2.284,5.662-3.071-1.742,3.221-3.784.42-.492Z" transform="translate(-548.011 -265.598)" fill="#eee"/>
              <g id="Group_34" data-name="Group 34" transform="translate(379.274 188.377)" opacity="0.2">
                <g id="Group_33" data-name="Group 33">
                  <g id="Group_32" data-name="Group 32" clip-path="url(#clip-path-13)">
                    <path id="Path_49" data-name="Path 49" d="M919.03,455.491l2.913,5.532,2.891-2.322Z" transform="translate(-919.031 -455.491)" fill="#363636"/>
                  </g>
                </g>
              </g>
              <path id="Path_50" data-name="Path 50" d="M924.834,457.89l-2.822,2.117-2.982-5.327,1.654-.57.479.435Z" transform="translate(-539.756 -266.303)" fill="#eee"/>
              <path id="Path_51" data-name="Path 51" d="M949.832,388.975c-7.49,1.022-7.206-5.837-6.633-9.216,2.944,1.206,5.924,3.785,6.633,9.216" transform="translate(-553.795 -222.647)" fill="#302f2f"/>
              <path id="Path_52" data-name="Path 52" d="M920.09,383.978c-.233.432-2.529,5.268-7.2,5.565s-11.9,3.574-11.833,8.241-6.748-13.834,7.335-16.206,11.7,2.4,11.7,2.4" transform="translate(-528.271 -223.326)" fill="#302f2f"/>
              <g id="Group_37" data-name="Group 37" transform="translate(348.632 77.173)" opacity="0.1">
                <g id="Group_36" data-name="Group 36">
                  <g id="Group_35" data-name="Group 35" clip-path="url(#clip-path-14)">
                    <path id="Path_53" data-name="Path 53" d="M1001.489,244.231,988.073,188.9a3.637,3.637,0,0,0-4.379-2.671L847.58,219.279a3.64,3.64,0,0,0-2.669,4.382l13.416,55.332a3.636,3.636,0,0,0,4.379,2.671L998.82,248.614a3.64,3.64,0,0,0,2.669-4.383" transform="translate(-844.808 -186.126)" fill="#232323"/>
                  </g>
                </g>
              </g>
              <path id="Path_54" data-name="Path 54" d="M1006.234,236.48,870.119,269.532a3.637,3.637,0,0,1-4.379-2.671l-13.416-55.332a3.64,3.64,0,0,1,2.669-4.382l136.115-33.051a3.636,3.636,0,0,1,4.379,2.671L1008.9,232.1a3.64,3.64,0,0,1-2.669,4.382" transform="translate(-500.529 -101.828)" fill="#f4b545"/>
              <path id="Path_55" data-name="Path 55" d="M934.028,268.881a26.675,26.675,0,1,1-32.212-19.647,26.7,26.7,0,0,1,32.212,19.647" transform="translate(-517.676 -145.562)" fill="#ffdca4"/>
              <path id="Path_56" data-name="Path 56" d="M939.955,353.447a4.023,4.023,0,0,1-.437.09l-.008,0a22.714,22.714,0,0,1-12.971-1.068,12.563,12.563,0,0,1,6.009-8.091l.008,0a11.161,11.161,0,0,1,1.587-.753,12.172,12.172,0,0,1,1.573-.5l4.391-1.066a12.156,12.156,0,0,1,1.619-.276l.008,0a11.149,11.149,0,0,1,1.755-.059,12.465,12.465,0,0,1,6.816,2.363,12.706,12.706,0,0,1,2.055,1.865,22.858,22.858,0,0,1-10.688,7.039c-.193.064-.388.119-.593.169a.392.392,0,0,1-.093.031l-.008,0a.351.351,0,0,1-.126.031.268.268,0,0,1-.11.027,4.719,4.719,0,0,1-.461.129l-.11.027-.134.032-.039.01Z" transform="translate(-544.165 -200.306)" fill="#f4b545"/>
              <path id="Path_57" data-name="Path 57" d="M913.932,278.164S908.951,263.634,917,261.37s10.866-5.13,12.977-4.915,6.875,13.356,7,16.114-23.042,5.6-23.042,5.6" transform="translate(-535.868 -150.24)" fill="#e09f36"/>
              <path id="Path_58" data-name="Path 58" d="M951.149,333.146l1.008,4.158c.427,1.762-.929,3.62-3.015,4.126s-4.142-.523-4.57-2.285l-1.008-4.158a2.962,2.962,0,0,1,.31-2.13,3.309,3.309,0,0,1,.286-.445,3.9,3.9,0,0,1,.735-.746,4.514,4.514,0,0,1,3.55-.862,3.885,3.885,0,0,1,.993.325l.048.023a3.379,3.379,0,0,1,.412.243,2.958,2.958,0,0,1,1.251,1.751" transform="translate(-554.116 -193.86)" fill="#f4cb95"/>
              <path id="Path_59" data-name="Path 59" d="M939.609,286.634l1.468,6.055a10.225,10.225,0,0,1-4.249,10.874l.387,1.6a10.073,10.073,0,0,1-3.241,1.425l-.811.2a10.051,10.051,0,0,1-3.533.22l-.387-1.6a10.217,10.217,0,0,1-8.756-7.716l-1.468-6.055a10.218,10.218,0,0,1,7.5-12.252l.811-.2a10.11,10.11,0,0,1,6.672.666h0a10.183,10.183,0,0,1,5.6,6.783" transform="translate(-539.588 -163.425)" fill="#d8a471"/>
              <path id="Path_60" data-name="Path 60" d="M938.678,282.82l1.845,7.608a10.085,10.085,0,0,1-.221,5.56c-.089.274-.2.542-.309.8a9.069,9.069,0,0,1-.452.934,10.134,10.134,0,0,1-6.508,5l-.805.2a10.2,10.2,0,0,1-12.289-7.5l-1.913-7.892a10.187,10.187,0,0,1,1.707-8.063,9.317,9.317,0,0,1,.838-1.018,10.072,10.072,0,0,1,5.014-2.933l.805-.2a9.868,9.868,0,0,1,4.573-.034,7.957,7.957,0,0,1,.868.225,9.548,9.548,0,0,1,1.022.382,10.17,10.17,0,0,1,5.824,6.923" transform="translate(-539.037 -161.159)" fill="#f4cb95"/>
              <path id="Path_61" data-name="Path 61" d="M973.321,296.818a4.08,4.08,0,0,1-3,4.926l-1.922-7.929a4.054,4.054,0,0,1,1.625-.061l.007,0a4.078,4.078,0,0,1,3.291,3.062" transform="translate(-568.743 -172.116)" fill="#edc28e"/>
              <path id="Path_62" data-name="Path 62" d="M972.332,299.394a2.526,2.526,0,0,1-1.858,3.05l-1.191-4.91a2.524,2.524,0,0,1,3.048,1.859" transform="translate(-569.263 -174.326)" fill="#d8a471"/>
              <path id="Path_63" data-name="Path 63" d="M914.094,306.09l1.922,7.929a4.08,4.08,0,0,1-2.787-7.613c.057-.029.116-.057.176-.082l.1-.038a3.921,3.921,0,0,1,.592-.2" transform="translate(-535.029 -179.391)" fill="#edc28e"/>
              <path id="Path_64" data-name="Path 64" d="M914.81,312.8a2.524,2.524,0,0,0,3.048,1.859l-1.19-4.91a2.527,2.527,0,0,0-1.858,3.051" transform="translate(-537.236 -181.538)" fill="#d8a471"/>
              <path id="Path_65" data-name="Path 65" d="M951.18,283.5l1.845,7.608a10.086,10.086,0,0,1-.221,5.56c-.088.274-.2.542-.309.8-1.511-14.824-4.421-16.318-7.818-15.464-3.655.907-5.579-3.4-5.579-3.4l5.236-2.415a9.544,9.544,0,0,1,1.022.382,10.17,10.17,0,0,1,5.825,6.923" transform="translate(-551.539 -161.837)" fill="#e5b67f"/>
              <path id="Path_66" data-name="Path 66" d="M963.247,347.023l1.361,1.415-2.581,5.02c-.193.064-.388.119-.593.169a.386.386,0,0,1-.093.031l-.008,0a.352.352,0,0,1-.126.031l1.212-7.7,0-.018.2-1.268.006-.01.019-.13-.5-2.051,2.969,3.054-1.776,1.383Z" transform="translate(-564.522 -200.776)" fill="#cc8e2b"/>
              <path id="Path_67" data-name="Path 67" d="M951.184,355.824l.11-.027a4.62,4.62,0,0,0,.461-.129.267.267,0,0,0,.11-.027.351.351,0,0,0,.126-.031l.008,0,.3-.907,1.57-4.883-.308-1.27.7-1.106-.874-1.609a4.207,4.207,0,0,1-.141.418l-.012.02,0,.016a8.418,8.418,0,0,1-2.164,3.365,4.983,4.983,0,0,1-.886.616,5.246,5.246,0,0,1-1.458-.264,8.209,8.209,0,0,1-3.064-1.9l-.012-.014a4.25,4.25,0,0,1-.317-.307l-.04,1.831,1.129.661.308,1.27,3.126,3.117,1.18,1.184.01.006Z" transform="translate(-555.18 -202.727)" fill="#fff"/>
              <path id="Path_68" data-name="Path 68" d="M963.189,346.578l1.262,1.489-3.174,5.189a.4.4,0,0,1-.093.031l-.008,0a.348.348,0,0,1-.126.031.268.268,0,0,1-.11.027l1.171-7.392,0-.008.313-1.98,0-.016.012-.02-.5-2.051,3.032,3.315-1.938,1.2Z" transform="translate(-564.365 -200.406)" fill="#e09f36"/>
              <path id="Path_69" data-name="Path 69" d="M949.1,356.538a4.024,4.024,0,0,1-.437.09l-.008,0-4.771-3.26.562-1.882-.122-.02-2.212-.415,1.24-4.076.434,1.791.063.26.012.014.039.057.012.014.785,1.071,0,.008,4.617,6.3-.134.032-.039.01Z" transform="translate(-553.306 -203.398)" fill="#cc8e2b"/>
              <path id="Path_70" data-name="Path 70" d="M949.1,356.168,943.879,353l.44-1.9.059-.24-2.271-.175,1.177-4.337.063.26.434,1.791.012.014,1.2,1.631,0,.008,4.43,6.049-.11.027-.134.033-.039.01Z" transform="translate(-553.306 -203.027)" fill="#e09f36"/>
              <path id="Path_71" data-name="Path 71" d="M930.88,272.1a53.484,53.484,0,0,0-6.266-.06,17.6,17.6,0,0,0-3.952,1.565,19.229,19.229,0,0,0-4.146,3.675l-.29,1.152a3.561,3.561,0,0,0-.435.915c.009.1.017.425.024.722l-.239.951c.055-.038.193-.119.357-.231l.45.747a8.827,8.827,0,0,1,2.123-3.012c1.973-1.3,4.833-2.2,7.259-1.189,4.408,1.838,10.995-1.458,10.995-1.458Z" transform="translate(-537.728 -159.345)" fill="#e09f36"/>
              <path id="Path_72" data-name="Path 72" d="M1080.349,209.9l-59.4,14.423a2.876,2.876,0,0,1-3.463-2.112l-.034-.14a2.878,2.878,0,0,1,2.111-3.466l59.4-14.423a2.876,2.876,0,0,1,3.463,2.112l.034.14a2.878,2.878,0,0,1-2.111,3.466" transform="translate(-597.5 -119.506)" fill="#e29d2d"/>
              <path id="Path_73" data-name="Path 73" d="M1087.673,240.106l-59.4,14.423a2.876,2.876,0,0,1-3.463-2.112l-.034-.14a2.879,2.879,0,0,1,2.111-3.466l59.4-14.423a2.876,2.876,0,0,1,3.463,2.112l.034.14a2.879,2.879,0,0,1-2.111,3.466" transform="translate(-601.8 -137.243)" fill="#ffdca4"/>
              <path id="Path_74" data-name="Path 74" d="M1095,270.315l-59.4,14.423a2.876,2.876,0,0,1-3.463-2.112l-.034-.14a2.878,2.878,0,0,1,2.111-3.466l59.4-14.423a2.876,2.876,0,0,1,3.463,2.112l.034.14a2.878,2.878,0,0,1-2.111,3.466" transform="translate(-606.101 -154.98)" fill="#ffdca4"/>
              <path id="Path_75" data-name="Path 75" d="M1102.321,300.522l-59.4,14.423a2.876,2.876,0,0,1-3.463-2.112l-.034-.14a2.878,2.878,0,0,1,2.111-3.466l59.4-14.423a2.876,2.876,0,0,1,3.463,2.112l.034.14a2.878,2.878,0,0,1-2.111,3.466" transform="translate(-610.402 -172.717)" fill="#ffdca4"/>
              <path id="Path_76" data-name="Path 76" d="M857.136,572.333q-1.476,0-2.954-.061a2.075,2.075,0,0,1,.167-4.146,69.159,69.159,0,0,0,10.716-.4,2.074,2.074,0,0,1,.471,4.122,73.907,73.907,0,0,1-8.4.485M843.308,570.9a2.069,2.069,0,0,1-.43-.045,67.924,67.924,0,0,1-10.9-3.283,2.075,2.075,0,0,1,1.526-3.86,63.486,63.486,0,0,0,10.231,3.083,2.075,2.075,0,0,1-.426,4.105m32.848-1.09a2.075,2.075,0,0,1-.525-4.082,83.054,83.054,0,0,0,10.227-3.418,2.075,2.075,0,0,1,1.563,3.844,87.322,87.322,0,0,1-10.738,3.588,2.093,2.093,0,0,1-.527.068m-53.322-6.976a2.058,2.058,0,0,1-1.057-.293,79.419,79.419,0,0,1-9.3-6.506,2.075,2.075,0,0,1,2.61-3.225,75.2,75.2,0,0,0,8.809,6.166,2.075,2.075,0,0,1-1.062,3.858m73.776-1.308a2.075,2.075,0,0,1-1.008-3.89,95.011,95.011,0,0,0,9.142-5.784,2.075,2.075,0,0,1,2.412,3.376,99.345,99.345,0,0,1-9.543,6.037,2.061,2.061,0,0,1-1,.261M805.655,549a2.066,2.066,0,0,1-1.5-.638,103.891,103.891,0,0,1-7.349-8.576,2.074,2.074,0,0,1,3.288-2.529,99.406,99.406,0,0,0,7.053,8.231,2.075,2.075,0,0,1-1.5,3.512m108.911-.309a2.075,2.075,0,0,1-1.39-3.616,93.129,93.129,0,0,0,7.6-7.7,2.074,2.074,0,1,1,3.117,2.737,97.142,97.142,0,0,1-7.939,8.042,2.069,2.069,0,0,1-1.387.534m7.125-12.327a2.075,2.075,0,0,1-.2-4.14,50.674,50.674,0,0,0,5.97-.951,2.079,2.079,0,0,1-.088-2.441,73.785,73.785,0,0,0,5.356-9.323,2.073,2.073,0,1,1,3.739,1.791,77.291,77.291,0,0,1-5.05,8.939q.235-.071.47-.145a2.075,2.075,0,0,1,1.238,3.962,55.978,55.978,0,0,1-11.231,2.3,1.951,1.951,0,0,1-.2.011m-11.026-.159a2.045,2.045,0,0,1-.266-.018,58.977,58.977,0,0,1-11.151-2.607,2.075,2.075,0,0,1,1.316-3.936,54.823,54.823,0,0,0,10.363,2.428,2.075,2.075,0,0,1-.262,4.133M792.155,531.5a2.072,2.072,0,0,1-1.761-.977c-2.01-3.225-3.863-6.537-5.506-9.844a2.074,2.074,0,1,1,3.713-1.847c1.584,3.188,3.37,6.382,5.311,9.494a2.075,2.075,0,0,1-1.757,3.174m150.535-1.621a2.075,2.075,0,0,1-.976-3.907,63.888,63.888,0,0,0,8.982-5.811,2.074,2.074,0,0,1,2.532,3.287,68.148,68.148,0,0,1-9.566,6.189,2.061,2.061,0,0,1-.971.243m-52.921-.591a2.051,2.051,0,0,1-.986-.251,60.2,60.2,0,0,1-9.508-6.366,2.074,2.074,0,0,1,2.631-3.207,56.122,56.122,0,0,0,8.853,5.925,2.075,2.075,0,0,1-.99,3.9m70.387-12.82a2.075,2.075,0,0,1-1.5-3.5,74.46,74.46,0,0,0,6.809-8.319,2.074,2.074,0,1,1,3.388,2.392,78.47,78.47,0,0,1-7.191,8.784,2.066,2.066,0,0,1-1.5.646m-87.249-1.247a2.072,2.072,0,0,1-1.653-.82,40.511,40.511,0,0,1-5.66-10.143,2.073,2.073,0,1,1,3.878-1.468,36.305,36.305,0,0,0,5.084,9.1,2.075,2.075,0,0,1-1.65,3.33m65.585-3.073a2.075,2.075,0,0,1-2-2.624,47.98,47.98,0,0,0,1.7-10.443,2.073,2.073,0,1,1,4.142.194,52.226,52.226,0,0,1-1.844,11.347,2.075,2.075,0,0,1-2,1.526m34.393-13.685a2.075,2.075,0,0,1-1.84-3.027,82.8,82.8,0,0,0,4.3-9.887,2.074,2.074,0,1,1,3.9,1.406,86.764,86.764,0,0,1-4.522,10.385,2.072,2.072,0,0,1-1.843,1.123m-107.59-3.644a2.074,2.074,0,0,1-2.07-1.975q-.046-.959-.047-1.919a42.36,42.36,0,0,1,1.136-9.631,2.073,2.073,0,1,1,4.036.944,38.323,38.323,0,0,0-1.026,8.687q0,.86.042,1.719a2.075,2.075,0,0,1-1.971,2.173l-.1,0m74.09-4.57a2.076,2.076,0,0,1-2.031-1.668,56.068,56.068,0,0,0-3.1-10.2,2.074,2.074,0,1,1,3.838-1.571,60.3,60.3,0,0,1,3.333,10.955,2.077,2.077,0,0,1-1.627,2.442,2.106,2.106,0,0,1-.409.04m-69.247-16.772a2.075,2.075,0,0,1-1.847-3.015,50.2,50.2,0,0,1,6.362-9.606,2.074,2.074,0,1,1,3.169,2.678,45.958,45.958,0,0,0-5.834,8.809,2.074,2.074,0,0,1-1.85,1.135m60.951-3.623a2.069,2.069,0,0,1-1.748-.957,51.048,51.048,0,0,0-6.582-8.321,2.074,2.074,0,1,1,2.952-2.914,55.08,55.08,0,0,1,7.121,9,2.075,2.075,0,0,1-1.744,3.193m-46.75-13.076a2.075,2.075,0,0,1-1.2-3.77,36.115,36.115,0,0,1,10.467-5.18,2.074,2.074,0,0,1,1.186,3.976,32,32,0,0,0-9.262,4.595,2.066,2.066,0,0,1-1.193.38m31.184-2.342a2.051,2.051,0,0,1-1.01-.265,26.4,26.4,0,0,0-9.644-3.264,2.074,2.074,0,0,1,.512-4.117,30.488,30.488,0,0,1,11.158,3.762,2.075,2.075,0,0,1-1.015,3.885" transform="translate(-460.865 -261.994)" fill="#52d1bd"/>
              <g id="Group_40" data-name="Group 40" transform="translate(481.432 158.554)" opacity="0.1">
                <g id="Group_39" data-name="Group 39">
                  <g id="Group_38" data-name="Group 38" clip-path="url(#clip-path-15)">
                    <path id="Path_77" data-name="Path 77" d="M1247.18,426.549A40.4,40.4,0,1,0,1204.017,464a40.417,40.417,0,0,0,43.162-37.456" transform="translate(-1166.485 -383.251)" fill="#232323"/>
                  </g>
                </g>
              </g>
              <path id="Path_78" data-name="Path 78" d="M1267.979,414.85a40.4,40.4,0,1,1-37.428-43.194,40.407,40.407,0,0,1,37.428,43.194" transform="translate(-697.266 -217.828)" fill="#f4b545"/>
              <path id="Path_79" data-name="Path 79" d="M1252.169,418.054l.956-3.175,7.668.546-5.9,20.527a16.625,16.625,0,0,0-.593,2.588,1.526,1.526,0,0,0,.26,1.07,1.032,1.032,0,0,0,.771.435q1.569.112,4.2-1.761a17.806,17.806,0,0,0,4.725-5.272,17.077,17.077,0,0,0,1.538-14.25,15.314,15.314,0,0,0-3.439-5.62,17.758,17.758,0,0,0-5.919-3.985,25.3,25.3,0,0,0-8.231-1.872,29.066,29.066,0,0,0-8.772.617,22.027,22.027,0,0,0-7.194,3.053,19.927,19.927,0,0,0-5.4,5.356,24.848,24.848,0,0,0-3.168,6.377,29.412,29.412,0,0,0-1.453,7.288,20.887,20.887,0,0,0,1.34,9.283,18.559,18.559,0,0,0,5.286,7.359,23.8,23.8,0,0,0,8.88,4.635,38.533,38.533,0,0,0,12.108,1.344,28.854,28.854,0,0,0,9.279-1.793,17.969,17.969,0,0,0,6.677-4.608l6.186.441a20.611,20.611,0,0,1-4.33,5.271,22.363,22.363,0,0,1-5.97,3.709,29.614,29.614,0,0,1-7.472,2.024,41.824,41.824,0,0,1-8.863.245,41.308,41.308,0,0,1-12.733-2.791A26.458,26.458,0,0,1,1223.36,449a22.977,22.977,0,0,1-5.311-8.851,28.4,28.4,0,0,1-1.235-10.97,32.13,32.13,0,0,1,2.885-11.422,26.648,26.648,0,0,1,16.514-14.454,32.992,32.992,0,0,1,12.489-1.36,30.52,30.52,0,0,1,10.008,2.334,22.486,22.486,0,0,1,7.556,5.2,20.255,20.255,0,0,1,4.5,7.522,23.57,23.57,0,0,1,1.078,9.265,22.047,22.047,0,0,1-6.408,13.96,19.457,19.457,0,0,1-6.449,4.273,16.967,16.967,0,0,1-7.7,1.19,7.038,7.038,0,0,1-3.6-1.06,3.954,3.954,0,0,1-1.562-2.667,11.286,11.286,0,0,1-6.034,2.74,10.853,10.853,0,0,1-6.318-1.063,10.61,10.61,0,0,1-4.678-4.613,13.534,13.534,0,0,1-1.378-7.518,22.013,22.013,0,0,1,2.6-8.842,18.584,18.584,0,0,1,6.092-6.841,12.985,12.985,0,0,1,8.377-2.238q5.228.372,7.389,4.47m-16.958,13.926a8.558,8.558,0,0,0,1.072,5.452,4.611,4.611,0,0,0,3.673,2.132,6.469,6.469,0,0,0,4.962-1.838,14.181,14.181,0,0,0,3.543-5.284,20.965,20.965,0,0,0,1.532-6.362,9.859,9.859,0,0,0-.165-2.8,6.614,6.614,0,0,0-.92-2.243,4.721,4.721,0,0,0-1.613-1.531,5.233,5.233,0,0,0-2.246-.642,6.458,6.458,0,0,0-4.745,1.663,13.032,13.032,0,0,0-3.519,4.949,19.993,19.993,0,0,0-1.573,6.505" transform="translate(-714.554 -235.615)" fill="#fff"/>
            </g>
          </g>
        </g>
      </g>
    </g>
  </g>
</svg>
