<svg  xmlns="http://www.w3.org/2000/svg" xmlns:xlink="http://www.w3.org/1999/xlink" width="17.372" height="16.011" viewBox="0 0 17.372 16.011">
  <path  d="M6.681,0a.667.667,0,0,0-.668.667V6a.667.667,0,0,0,.668.667,8.6,8.6,0,0,1,4.306,1.222h0l.039.023.025.013.01,0,.053.025c.021.008.041.015.063.021l.01,0,.043.01h0A.6.6,0,0,0,11.3,8H11.3l.053,0h.024l.035,0h.031l.055-.01.052-.014.012,0,.012,0,.017-.007.044-.018a.525.525,0,0,0,.049-.025l.043-.026a8.6,8.6,0,0,1,4.306-1.222A.667.667,0,0,0,16.7,6V.667A.667.667,0,0,0,16.035,0a9.972,9.972,0,0,0-4.677,1.227A9.972,9.972,0,0,0,6.681,0M7.35,1.41a8.167,8.167,0,0,1,3.341,1V6.261A9.064,9.064,0,0,0,7.35,5.413Zm8.018,0v4a9.064,9.064,0,0,0-3.341.848V2.409a8.167,8.167,0,0,1,3.341-1M4.009,8.005a2.007,2.007,0,0,0-.746.145L0,9.34v5.337l2.82-1.223a1.347,1.347,0,0,1,1.045-.012l6.056,2.47h0a.99.99,0,0,0,.925-.033h0l6-3.33h0a1,1,0,0,0-.912-1.777h0l-4.586,1.906h-1a1,1,0,0,0,.311-1.952h0L4.858,8.193H4.851a2.006,2.006,0,0,0-.842-.187" fill="red"/>
</svg>
