<svg id="Vector_Smart_Object" data-name="Vector Smart Object" xmlns="http://www.w3.org/2000/svg" xmlns:xlink="http://www.w3.org/1999/xlink" width="16.812" height="19.399" viewBox="0 0 16.812 19.399">
  <g id="Group_6" data-name="Group 6">
    <g id="Group_5" data-name="Group 5" clip-path="url(#clip-path)">
      <path id="Path_3" data-name="Path 3" d="M9.748,18.488a7,7,0,0,1-1.689.26A7.7,7.7,0,0,1,.143,12.433,7.483,7.483,0,0,1,2.975,4.95a7.281,7.281,0,0,1,5.117-1.7,7.836,7.836,0,0,1,7.222,6.06,7.421,7.421,0,0,1,.163,2.507c-.015.139-.035.2-.184.1a3.818,3.818,0,0,0-.939-.413c-.069-.021-.159-.017-.159-.141,0-.088-.1-.047-.148-.048q-.687-.005-1.375,0a.342.342,0,0,1-.359-.206.321.321,0,0,1,.336-.44c.458,0,.916-.008,1.374,0,.158,0,.187-.04.174-.192a6.45,6.45,0,0,0-1.542-3.7c-.092-.11-.14-.089-.227,0q-.486.5-.986.986a.322.322,0,0,1-.557-.1.353.353,0,0,1,.121-.38c.321-.317.636-.641.96-.954.1-.093.118-.142,0-.241A6.451,6.451,0,0,0,8.259,4.558c-.141-.011-.185.016-.182.164.01.451,0,.9,0,1.354,0,.241-.12.386-.314.391s-.33-.145-.331-.394c0-.451,0-.9,0-1.354,0-.123-.015-.175-.163-.163a6.455,6.455,0,0,0-3.74,1.552c-.109.092-.074.136.005.213.327.321.648.647.974.97a.334.334,0,0,1,.091.435.321.321,0,0,1-.532.039c-.332-.325-.662-.653-.985-.987-.092-.1-.139-.1-.227.007a6.426,6.426,0,0,0-1.542,3.722c-.011.141.029.169.159.167.431-.007.862,0,1.294,0,.307,0,.462.112.458.328s-.155.318-.449.318c-.438,0-.876,0-1.314,0-.124,0-.159.027-.149.157a6.431,6.431,0,0,0,1.549,3.74c.084.1.128.092.213,0,.314-.324.636-.641.956-.959.182-.181.369-.2.513-.066s.13.338-.058.527c-.318.32-.634.643-.96.955-.1.092-.08.135.012.213a6.475,6.475,0,0,0,3.682,1.544c.2.018.218-.046.214-.212-.01-.431,0-.862,0-1.293,0-.256.12-.4.322-.4s.323.147.324.4c0,.445.008.889,0,1.333,0,.16.043.2.193.171.212-.038.426-.06.64-.087.063-.008.135-.039.172.051a4.621,4.621,0,0,0,.667,1.1" fill="currentColor"/>
      <path id="Path_4" data-name="Path 4" d="M16.812,15.684a3.719,3.719,0,1,1-3.692-3.719,3.721,3.721,0,0,1,3.692,3.719m-3.879.713c0,.168-.008.276,0,.383.013.144-.042.161-.161.112a5.457,5.457,0,0,1-.5-.306.342.342,0,0,0-.524.156.508.508,0,0,0,.166.677,1.665,1.665,0,0,0,.88.318c.08.01.14.011.138.12,0,.138.1.187.216.186s.226-.056.221-.2c0-.082.028-.113.11-.134a1.248,1.248,0,0,0,1.023-1.079,1.1,1.1,0,0,0-.781-1.244.491.491,0,0,1-.358-.575c.026-.489.007-.49.451-.287.27.123.406.081.529-.164a.379.379,0,0,0-.175-.56,1.516,1.516,0,0,0-.619-.167c-.108-.01-.187-.006-.189-.158,0-.121-.121-.152-.227-.148s-.2.043-.2.158c.01.159-.086.163-.2.186a1.164,1.164,0,0,0-.942,1.375,1.058,1.058,0,0,0,.729.775c.327.118.508.276.4.582" fill="currentColor"/>
      <path id="Path_5" data-name="Path 5" d="M7.955,2.634a7.558,7.558,0,0,0-.989.042c-.14.013-.208-.019-.179-.165.037-.185-.043-.243-.221-.279a.934.934,0,0,1-.748-.908A2.073,2.073,0,0,1,5.847.741a.956.956,0,0,1,.9-.734q1.01-.013,2.02,0a.92.92,0,0,1,.887.723,1.438,1.438,0,0,1-.1,1.06.882.882,0,0,1-.658.454c-.151.02-.2.077-.173.214.034.189-.044.244-.229.215s-.362-.027-.544-.04" fill="currentColor"/>
      <path id="Path_6" data-name="Path 6" d="M8.081,8.719c0,.4,0,.808,0,1.212a.2.2,0,0,0,.129.216.812.812,0,0,1,.4.408.182.182,0,0,0,.2.119c.269-.006.539,0,.808,0,.252,0,.4.125.4.327s-.151.317-.407.319-.525,0-.788,0a.2.2,0,0,0-.217.126.956.956,0,0,1-.991.513.981.981,0,0,1-.819-.811.951.951,0,0,1,.5-.994.22.22,0,0,0,.134-.233c0-.768,0-1.535,0-2.3,0-.054,0-.108,0-.162a.333.333,0,0,1,.332-.336.32.32,0,0,1,.311.35c0,.417,0,.835,0,1.252H8.081m0,2.272a.322.322,0,1,0-.314.326.325.325,0,0,0,.314-.326" fill="currentColor"/>
      <path id="Path_7" data-name="Path 7" d="M.674,5.221a.906.906,0,0,1,.264-.676c.238-.246.477-.493.728-.727a.988.988,0,0,1,1.436.1c.1.117-.007.136-.062.174a8.914,8.914,0,0,0-1.191.993,6.248,6.248,0,0,0-.68.77C1.062,6,1,5.965.906,5.849a.96.96,0,0,1-.232-.628" fill="currentColor"/>
      <path id="Path_8" data-name="Path 8" d="M13.186,3.555a.92.92,0,0,1,.673.272c.241.234.482.469.712.714a.977.977,0,0,1-.013,1.365c-.066.066-.1.083-.17,0a8.51,8.51,0,0,0-1.942-1.832c-.076-.052-.1-.086-.023-.166a1.01,1.01,0,0,1,.764-.35" fill="currentColor"/>
      <path id="Path_9" data-name="Path 9" d="M13.316,16.154c.211.1.336.214.348.418a.309.309,0,0,1-.2.3c-.093.05-.151.048-.149-.081,0-.2,0-.4,0-.634" fill="currentColor"/>
      <path id="Path_10" data-name="Path 10" d="M12.993,14.75a.138.138,0,0,1,0,.02c-.015.1.051.227-.039.28-.059.035-.155-.055-.218-.117a.282.282,0,0,1-.081-.328.35.35,0,0,1,.23-.18c.085-.03.109.007.108.084s0,.161,0,.241Z" fill="currentColor"/>
    </g>
  </g>
</svg>
